<svg width="133" height="44" viewBox="0 0 133 44" fill="none" xmlns="http://www.w3.org/2000/svg">
<g clip-path="url(#clip0)">
<path d="M8.54 43.9969C8.1965 43.9969 7.8614 43.9931 7.5198 43.9845C6.81366 43.9751 6.1092 43.9124 5.4121 43.797C4.76194 43.6828 4.1321 43.4704 3.5434 43.1668C2.96014 42.8658 2.4281 42.4711 1.9678 41.9978C1.50078 41.5298 1.11201 40.987 0.816905 40.3909C0.518535 39.7912 0.312025 39.1485 0.204575 38.4851C0.0885846 37.7719 0.0258646 37.0508 0.0169546 36.328C0.00948709 36.0862 0.000152588 35.278 0.000152588 35.278V8.70599C0.000152588 8.70599 0.00948689 7.91016 0.0169546 7.67689C0.0253555 6.95531 0.0878956 6.23569 0.203645 5.52359C0.311125 4.85834 0.517625 4.21369 0.815975 3.61209C1.11012 3.01631 1.4969 2.47299 1.96127 2.00329C2.42485 1.52952 2.9584 1.13281 3.54247 0.827587C4.1299 0.524997 4.75857 0.314157 5.40747 0.202157C6.10754 0.0850666 6.81417 0.0212866 7.52267 0.0127166L8.54007 -0.000610352H124.45L125.48 0.0136686C126.182 0.0222361 126.883 0.0850647 127.575 0.200249C128.231 0.314479 128.866 0.526769 129.461 0.830439C130.631 1.44611 131.583 2.41974 132.184 3.61484C132.478 4.21171 132.681 4.85144 132.788 5.51114C132.905 6.22891 132.97 6.95434 132.984 7.68154C132.987 8.00806 132.987 8.35742 132.987 8.70584C132.997 9.13707 132.997 9.54736 132.997 9.96244V34.0354C132.997 34.4534 132.997 34.8608 132.987 35.2729C132.987 35.6461 132.987 35.9888 132.983 36.3419C132.97 37.0559 132.905 37.7689 132.789 38.4743C132.684 39.1424 132.479 39.7899 132.181 40.3944C131.884 40.9841 131.497 41.5221 131.035 41.9889C130.575 42.4647 130.042 42.8617 129.457 43.1646C128.864 43.4705 128.23 43.6836 127.575 43.7967C126.878 43.9129 126.173 43.9757 125.468 43.9843C125.137 43.9928 124.791 43.9966 124.455 43.9966L123.232 43.9995L8.53197 43.9966L8.54 43.9969Z" fill="black"/>
<path d="M28.1 21.1479C28.1237 19.3073 29.0885 17.6071 30.6565 16.6428C29.6626 15.2234 28.0576 14.3559 26.3256 14.3018C24.5027 14.1105 22.7374 15.3919 21.8089 15.3919C20.8625 15.3919 19.4329 14.3206 17.8938 14.3521C15.8682 14.4177 14.0256 15.5416 13.0403 17.3127C10.9418 20.9458 12.5069 26.2851 14.5165 29.2217C15.5222 30.6602 16.6985 32.2658 18.2358 32.2092C19.7408 32.1463 20.3029 31.2502 22.1195 31.2502C23.9199 31.2502 24.447 32.2092 26.0166 32.1733C27.6311 32.1463 28.6485 30.7285 29.6192 29.2774C30.3416 28.2526 30.8974 27.1201 31.2661 25.9217C29.348 25.1103 28.101 23.2308 28.099 21.1481H28.0999L28.1 21.1479ZM25.1349 12.3703C26.0155 11.3132 26.4494 9.9545 26.3445 8.5827C24.9991 8.72408 23.7564 9.36725 22.864 10.384C21.9829 11.3867 21.5365 12.6986 21.623 14.0306C22.9862 14.0447 24.2806 13.4327 25.1349 12.3703Z" fill="white"/>
<path d="M47.124 28.5689H41.9877L40.7548 32.211H38.5799L43.4441 18.737H45.7043L50.5685 32.211H48.3568L47.1239 28.5689H47.124ZM42.5202 26.8888H46.5915L44.5846 20.9775H44.528L42.5202 26.8888H42.5202ZM61.0752 27.2992C61.0752 30.3523 59.4409 32.3134 56.976 32.3134C55.7015 32.3799 54.5011 31.7124 53.8852 30.5947H53.8385V35.4607H51.8217V22.3857H53.7739V24.02H53.8107C54.4539 22.9089 55.656 22.2416 56.9392 22.2833C59.4319 22.2833 61.0752 24.2543 61.0752 27.2984V27.2993L61.0752 27.2992ZM59.0027 27.2992C59.0027 25.3111 57.9754 24.0037 56.4076 24.0037C54.8658 24.0037 53.8305 25.3381 53.8305 27.2992C53.8305 29.2792 54.8658 30.6037 56.4076 30.6037C57.9754 30.6037 59.0027 29.3061 59.0027 27.2992ZM71.8877 27.2992C71.8877 30.3523 70.2534 32.3134 67.7885 32.3134C66.514 32.3799 65.3136 31.7124 64.6977 30.5947H64.651V35.4607H62.6342V22.3857H64.5864V24.02H64.6223C65.2655 22.9089 66.4676 22.2416 67.7508 22.2833C70.2444 22.2833 71.8877 24.2543 71.8877 27.2984V27.2993L71.8877 27.2992ZM69.8152 27.2992C69.8152 25.3111 68.787 24.0037 67.2192 24.0037C65.6783 24.0037 64.6421 25.3381 64.6421 27.2992C64.6421 29.2792 65.6783 30.6037 67.2192 30.6037C68.787 30.6037 69.8152 29.3061 69.8152 27.2992Z" fill="white"/>
<path d="M79.033 28.4559C79.183 29.7921 80.4805 30.6694 82.254 30.6694C83.9538 30.6694 85.1769 29.7921 85.1769 28.587C85.1769 27.5418 84.4397 26.915 82.6931 26.4858L80.9466 26.0656C78.4727 25.4675 77.3242 24.311 77.3242 22.4334C77.3242 20.1077 79.35 18.512 82.2271 18.512C85.0736 18.512 87.0258 20.1086 87.0913 22.4334H85.0556C84.9344 21.0883 83.8227 20.2765 82.1983 20.2765C80.573 20.2765 79.4622 21.0981 79.4622 22.2933C79.4622 23.2451 80.1716 23.8064 81.9091 24.2356L83.3934 24.6001C86.1582 25.2538 87.3067 26.3646 87.3067 28.3356C87.3067 30.8562 85.2989 32.4348 82.1048 32.4348C79.1164 32.4348 77.0996 30.893 76.9685 28.4559H79.0338H79.0329L79.033 28.4559ZM91.658 20.0618V22.3866H93.5258V23.9832H91.658V29.3988C91.658 30.2402 92.0325 30.6326 92.8532 30.6326C93.075 30.6283 93.2965 30.6127 93.5168 30.5859V32.1726C93.1477 32.2418 92.7715 32.2732 92.3961 32.266C90.408 32.266 89.6322 31.5189 89.6322 29.6143V23.9832H88.2044V22.3848H89.6322V20.0609H91.658V20.0618L91.658 20.0618Z" fill="white"/>
<path d="M94.608 27.2989C94.608 24.2081 96.4282 22.2658 99.2675 22.2658C102.116 22.2658 103.928 24.2081 103.928 27.2989C103.928 30.3987 102.125 32.332 99.2675 32.332C96.4102 32.332 94.608 30.3987 94.608 27.2989ZM101.872 27.2989C101.872 25.1797 100.901 23.928 99.2675 23.928C97.6332 23.928 96.6634 25.1887 96.6634 27.2989C96.6634 29.428 97.6332 30.6698 99.2675 30.6698C100.902 30.6698 101.872 29.4279 101.872 27.2989Z" fill="white"/>
<path d="M105.59 22.3869H107.513V24.0589H107.56C107.828 22.983 108.814 22.2422 109.922 22.2836C110.155 22.2836 110.387 22.3087 110.613 22.359V24.2447C110.32 24.1553 110.014 24.1143 109.707 24.1235C109.114 24.0995 108.541 24.3358 108.137 24.7703C107.733 25.2048 107.539 25.7942 107.606 26.3837V32.2106H105.59V22.3869L105.59 22.3869Z" fill="white"/>
<path d="M119.91 29.3259C119.639 31.1092 117.902 32.3323 115.681 32.3323C112.822 32.3323 111.048 30.4179 111.048 27.3459C111.048 24.265 112.831 22.2661 115.595 22.2661C118.313 22.2661 120.022 24.1339 120.022 27.1124V27.8029H113.084V27.9251C113.019 28.6563 113.272 29.3799 113.778 29.9121C114.283 30.4442 114.993 30.7337 115.726 30.7069C116.705 30.7986 117.627 30.237 117.995 29.3258H119.91L119.91 29.3259ZM113.094 26.3941H118.005C118.041 25.7369 117.802 25.094 117.345 24.6206C116.888 24.1472 116.253 23.8862 115.595 23.9005C114.932 23.8966 114.295 24.1579 113.825 24.6261C113.355 25.0944 113.092 25.7308 113.094 26.3941H113.094Z" fill="white"/>
<path d="M42.2678 8.59433C43.1238 8.53317 43.9621 8.85903 44.5521 9.48224C45.1421 10.1054 45.4216 10.9603 45.3137 11.8117C45.3137 13.8797 44.1957 15.0686 42.2678 15.0686H39.9286V8.59434H42.2678L42.2678 8.59433ZM40.9343 14.1527H42.1555C42.7669 14.1889 43.3622 13.9479 43.7761 13.4965C44.1901 13.0451 44.3788 12.4313 44.2899 11.8252C44.3729 11.2214 44.1817 10.6122 43.7687 10.1641C43.3557 9.71595 42.764 9.47583 42.1555 9.50939H40.9343V14.1536V14.1527L40.9343 14.1527ZM46.4496 12.6244C46.3647 11.748 46.7844 10.8993 47.5324 10.4348C48.2804 9.97028 49.2271 9.97028 49.9751 10.4348C50.7231 10.8994 51.1428 11.748 51.0579 12.6244C51.1428 13.5008 50.7231 14.3495 49.9751 14.814C49.2271 15.2786 48.2804 15.2786 47.5324 14.814C46.7844 14.3495 46.3647 13.5008 46.4496 12.6244ZM50.0666 12.6244C50.0666 11.5648 49.5907 10.9452 48.7556 10.9452C47.9169 10.9452 47.4455 11.5648 47.4455 12.6244C47.4455 13.6912 47.9178 14.3063 48.7556 14.3063C49.5907 14.3063 50.0666 13.6867 50.0666 12.6235V12.6244V12.6244Z" fill="white"/>
<path d="M57.184 15.0686H56.1837L55.1735 11.4705H55.0972L54.0915 15.0686H53.101L51.7541 10.1837H52.7329L53.6075 13.9102H53.6794L54.6851 10.1837H55.61L56.6139 13.9102H56.6902L57.5612 10.1837H58.5256L57.184 15.0686H57.184ZM59.6579 10.1828H60.5864V10.9587H60.6582C60.909 10.3873 61.4946 10.0378 62.1165 10.0885C62.5981 10.0525 63.0699 10.2374 63.3987 10.5909C63.7276 10.9444 63.878 11.4283 63.8074 11.906V15.0686H62.8429V12.1484C62.8429 11.3636 62.5017 10.973 61.7887 10.973C61.462 10.9575 61.1447 11.0856 60.9203 11.3237C60.6959 11.5617 60.5867 11.886 60.6214 12.2113V15.0695H59.6579V10.1846V10.1828L59.6579 10.1828ZM65.3438 8.27551H66.3082V15.0686H65.3438V8.27551Z" fill="white"/>
<path d="M67.648 12.6244C67.565 11.749 67.9853 10.9021 68.7326 10.4386C69.4799 9.97515 70.4253 9.97515 71.1727 10.4386C71.92 10.9021 72.3403 11.7489 72.2573 12.6244C72.3403 13.4999 71.92 14.3467 71.1727 14.8102C70.4254 15.2737 69.48 15.2737 68.7326 14.8102C67.9853 14.3468 67.565 13.4999 67.648 12.6244ZM71.265 12.6244C71.265 11.5648 70.7891 10.9452 69.954 10.9452C69.1162 10.9452 68.6448 11.5648 68.6448 12.6244C68.6448 13.6912 69.1162 14.3063 69.954 14.3063C70.7891 14.3063 71.265 13.6867 71.265 12.6235V12.6244V12.6244ZM73.2719 13.6867C73.2719 12.8076 73.9274 12.3003 75.0894 12.2284L76.413 12.1521V11.73C76.413 11.2146 76.0718 10.9228 75.4127 10.9228C74.8739 10.9228 74.5013 11.1203 74.3944 11.466H73.4605C73.5593 10.6273 74.3495 10.0885 75.4576 10.0885C76.6824 10.0885 77.3729 10.6991 77.3729 11.7309V15.0686H76.4444V14.3817H76.3681C76.0531 14.8834 75.4926 15.1767 74.9008 15.1495C74.4859 15.1926 74.0721 15.0582 73.7618 14.7795C73.4515 14.5008 73.2735 14.1038 73.2719 13.6867L73.2719 13.6867ZM76.413 13.2692V12.8615L75.2196 12.9378C74.547 12.9827 74.2417 13.2117 74.2417 13.6418C74.2417 14.0818 74.6234 14.3377 75.1487 14.3377C75.4591 14.3688 75.7689 14.2727 76.0072 14.0713C76.2455 13.8699 76.3919 13.5805 76.413 13.2692L76.413 13.2692ZM78.6399 12.6244C78.6399 11.0799 79.4337 10.1011 80.6684 10.1011C81.2917 10.0726 81.8753 10.4068 82.1662 10.9587H82.238V8.27557H83.2024V15.0687H82.2793V14.2964H82.203C81.8899 14.8445 81.2982 15.1731 80.6675 15.1495C79.4256 15.1495 78.6399 14.1707 78.6399 12.6235V12.6244L78.6399 12.6244ZM79.6366 12.6244C79.6366 13.6597 80.1251 14.2838 80.9413 14.2838C81.754 14.2838 82.2568 13.6508 82.2568 12.628C82.2568 11.6097 81.7495 10.9677 80.9413 10.9677C80.1296 10.9677 79.6366 11.5963 79.6366 12.6235V12.6244V12.6244ZM87.192 12.6244C87.1072 11.748 87.5269 10.8993 88.2748 10.4348C89.0228 9.97032 89.9695 9.97027 90.7175 10.4348C91.4655 10.8994 91.8852 11.748 91.8003 12.6244C91.8852 13.5008 91.4655 14.3495 90.7175 14.814C89.9696 15.2786 89.0228 15.2786 88.2748 14.814C87.5269 14.3495 87.1071 13.5008 87.192 12.6244ZM90.809 12.6244C90.809 11.5648 90.3331 10.9452 89.498 10.9452C88.6602 10.9452 88.1888 11.5648 88.1888 12.6244C88.1888 13.6912 88.6603 14.3063 89.498 14.3063C90.3331 14.3063 90.809 13.6867 90.809 12.6235V12.6244V12.6244Z" fill="white"/>
<path d="M93.094 10.1828H94.0225V10.9586H94.0943C94.3451 10.3872 94.9307 10.0378 95.5526 10.0885C96.0342 10.0525 96.506 10.2373 96.8348 10.5909C97.1637 10.9444 97.3141 11.4283 97.2435 11.906V15.0686H96.279V12.1484C96.279 11.3636 95.9378 10.973 95.2248 10.973C94.8981 10.9575 94.5808 11.0856 94.3564 11.3237C94.132 11.5617 94.0228 11.8859 94.0575 12.2113V15.0695H93.094V10.1846V10.1828L93.094 10.1828ZM102.691 8.96609V10.2053H103.751V11.0171H102.691V13.5296C102.691 14.0414 102.902 14.2659 103.383 14.2659C103.506 14.2659 103.628 14.2578 103.751 14.2434V15.0462C103.578 15.0773 103.402 15.0938 103.226 15.0956C102.153 15.0956 101.726 14.7185 101.726 13.7765V11.0171H100.951V10.2053H101.726V8.96614H102.691L102.691 8.96609ZM105.067 8.27556H106.023V10.9677H106.099C106.362 10.3911 106.958 10.0413 107.59 10.0931C108.068 10.0671 108.534 10.2559 108.859 10.6081C109.184 10.9602 109.335 11.439 109.272 11.9141V15.0686H108.306V12.152C108.306 11.3716 107.944 10.9757 107.262 10.9757C106.926 10.9481 106.596 11.0701 106.359 11.3091C106.121 11.548 106.002 11.8795 106.032 12.2149V15.0686H105.067V8.27545L105.067 8.27556Z" fill="white"/>
<path d="M114.895 13.7495C114.625 14.6711 113.733 15.2666 112.778 15.1629C112.126 15.1804 111.5 14.9105 111.065 14.4249C110.63 13.9393 110.431 13.2871 110.52 12.6415C110.433 11.9938 110.632 11.3405 111.064 10.8507C111.497 10.3609 112.121 10.0828 112.774 10.0886C114.133 10.0886 114.952 11.0171 114.952 12.5517V12.8884H111.502V12.9423C111.472 13.305 111.596 13.6639 111.844 13.9304C112.091 14.197 112.44 14.3465 112.804 14.3422C113.276 14.3986 113.735 14.1645 113.966 13.7496H114.895L114.895 13.7495ZM111.503 12.1754H113.971C113.996 11.8436 113.879 11.5169 113.65 11.2758C113.421 11.0346 113.1 10.9015 112.768 10.9093C112.431 10.9051 112.106 11.0372 111.868 11.2756C111.63 11.514 111.498 11.8384 111.503 12.1754Z" fill="white"/>
</g>
<defs>
<clipPath id="clip0">
<rect width="133" height="44" fill="white" transform="translate(0 -0.00012207)"/>
</clipPath>
</defs>
</svg>
