<svg width="10" height="10" viewBox="0 0 10 10" fill="none" xmlns="http://www.w3.org/2000/svg">
<path d="M2.48274 3.12406C2.40348 3.12618 2.32647 3.15084 2.26075 3.19519C2.19503 3.23955 2.14332 3.30174 2.11171 3.37445C2.08009 3.44717 2.06988 3.5274 2.08226 3.60571C2.09465 3.68403 2.12912 3.75719 2.18163 3.8166L4.67919 6.73571C4.71831 6.78155 4.76691 6.81836 4.82163 6.8436C4.87636 6.86885 4.9359 6.88191 4.99617 6.88191C5.05643 6.88191 5.11598 6.86885 5.1707 6.8436C5.22543 6.81836 5.27402 6.78155 5.31314 6.73571L7.81314 3.8166C7.85098 3.77537 7.88011 3.72693 7.89882 3.6742C7.91753 3.62146 7.92543 3.5655 7.92204 3.50964C7.91866 3.45379 7.90405 3.39917 7.87911 3.34908C7.85416 3.29899 7.81939 3.25447 7.77685 3.21812C7.73431 3.18176 7.68489 3.15432 7.63153 3.13747C7.57817 3.12063 7.52196 3.11473 7.46626 3.12008C7.41056 3.12543 7.35651 3.14192 7.30733 3.16862C7.25814 3.19531 7.21484 3.23161 7.18001 3.2754L4.99576 5.82504L2.81233 3.2754C2.77235 3.22697 2.72194 3.18824 2.66486 3.16203C2.60779 3.13582 2.54553 3.12282 2.48274 3.12406Z" fill="#7E7E7E"/>
</svg>
