<svg width="15" height="15" viewBox="0 0 15 15" fill="none" xmlns="http://www.w3.org/2000/svg">
<path d="M13.6132 3.17077C13.613 3.16593 13.6124 3.1611 13.6116 3.15629C13.5929 3.12951 13.5698 3.10646 13.5505 3.08021C13.4105 2.88944 13.2622 2.70582 13.1058 2.52933C13.0629 2.4811 13.02 2.43341 12.9761 2.38625C12.815 2.21371 12.646 2.04918 12.4692 1.89272C12.4365 1.86377 12.4059 1.83379 12.3732 1.80537C11.9374 1.43201 11.4602 1.1098 10.951 0.845114C10.9307 0.834407 10.9092 0.825301 10.8883 0.814563C10.6616 0.699331 10.4291 0.595747 10.1917 0.504283C10.1381 0.485005 10.0893 0.466762 10.0384 0.450686C9.82732 0.374608 9.61296 0.30798 9.3954 0.250803C9.3311 0.23366 9.26679 0.215982 9.20142 0.200974C8.98706 0.151144 8.77274 0.113089 8.55354 0.082005C8.4871 0.0723657 8.42173 0.0594923 8.35473 0.0514543C7.79022 -0.0171514 7.21949 -0.0171514 6.65494 0.0514543C6.58797 0.0594923 6.5226 0.0723657 6.45613 0.082005C6.23696 0.113089 6.02047 0.151144 5.80825 0.200974C5.74288 0.215982 5.67857 0.23366 5.61427 0.250803C5.39526 0.307948 5.18094 0.374576 4.97123 0.450686C4.91763 0.468897 4.86887 0.48714 4.81797 0.504283C4.58063 0.595747 4.34809 0.699299 4.12133 0.814563C4.10042 0.82527 4.07901 0.834376 4.05863 0.845114C3.54775 1.10952 3.06895 1.4317 2.6316 1.80537C2.59892 1.83376 2.56836 1.86377 2.53568 1.89272C2.35705 2.04991 2.18807 2.21443 2.02875 2.38625C1.98482 2.43341 1.94193 2.4811 1.89907 2.52933C1.74224 2.70544 1.59398 2.88906 1.45432 3.08018C1.43504 3.10643 1.41199 3.12948 1.39321 3.15626C1.39076 3.16094 1.3886 3.16578 1.38678 3.17074C-0.461526 5.76102 -0.461526 9.23903 1.38678 11.8293C1.3886 11.8342 1.39073 11.8391 1.39321 11.8438C1.41196 11.8705 1.435 11.8936 1.45432 11.9198C1.59401 12.1106 1.74224 12.2942 1.89907 12.4707C1.94193 12.5189 1.98482 12.5666 2.02875 12.6138C2.19023 12.7863 2.35919 12.9509 2.53568 13.1073C2.56836 13.1363 2.59892 13.1663 2.6316 13.1947C3.06741 13.568 3.54461 13.8902 4.0538 14.1549C4.07417 14.1656 4.09559 14.1747 4.1165 14.1855C4.34326 14.3007 4.57576 14.4043 4.81314 14.4958C4.86673 14.515 4.9155 14.5333 4.96639 14.5494C5.17752 14.6254 5.39187 14.6921 5.60943 14.7492C5.67374 14.7664 5.73804 14.7841 5.80341 14.7991C6.01777 14.8489 6.2321 14.887 6.45129 14.918C6.51773 14.9277 6.5831 14.9406 6.65011 14.9486C7.21462 15.0172 7.78535 15.0172 8.34989 14.9486C8.41687 14.9406 8.48224 14.9277 8.54871 14.918C8.76787 14.887 8.98436 14.8489 9.19658 14.7991C9.26196 14.7841 9.32626 14.7664 9.39056 14.7492C9.60991 14.6921 9.82427 14.6255 10.0336 14.5494C10.0872 14.5311 10.136 14.5129 10.1869 14.4958C10.4242 14.4043 10.6567 14.3007 10.8835 14.1855C10.9044 14.1748 10.9258 14.1657 10.9462 14.1549C11.4554 13.8902 11.9326 13.568 12.3684 13.1947C12.4011 13.1663 12.4316 13.1363 12.4643 13.1073C12.6429 12.9505 12.8119 12.786 12.9712 12.6138C13.0152 12.5666 13.0581 12.5189 13.1009 12.4707C13.2578 12.2942 13.406 12.1106 13.5457 11.9198C13.565 11.8936 13.588 11.8705 13.6068 11.8438C13.6092 11.8391 13.6114 11.8342 13.6132 11.8293C15.4615 9.23906 15.4615 5.76105 13.6132 3.17077ZM13.0018 4.18466C13.5143 5.02868 13.8237 5.98018 13.9058 6.96421H10.696C10.6566 6.32569 10.5562 5.69244 10.3959 5.07314C11.3026 4.90334 12.1802 4.60411 13.0018 4.18466ZM8.86596 1.21753C8.89598 1.2245 8.92489 1.23414 8.95491 1.24111C9.14676 1.28614 9.337 1.33757 9.52294 1.40187C9.55136 1.41151 9.57921 1.42278 9.60709 1.43296C9.79143 1.49726 9.97307 1.56853 10.151 1.64731C10.1821 1.66179 10.2126 1.67786 10.2437 1.69234C10.4141 1.77344 10.5806 1.86114 10.7431 1.95546L10.8503 2.0203C11.0046 2.11462 11.1547 2.21553 11.3004 2.32307C11.338 2.35039 11.3755 2.37667 11.4124 2.40665C11.5553 2.51382 11.6922 2.62867 11.8229 2.75122C11.8572 2.78231 11.8926 2.81286 11.9263 2.84501C12.0635 2.97522 12.1943 3.11293 12.3207 3.25548C12.3368 3.27423 12.354 3.29137 12.37 3.30908C11.6444 3.65487 10.8758 3.90179 10.0846 4.04321C9.71802 3.03557 9.23382 2.07471 8.64202 1.18061C8.71644 1.19398 8.79255 1.20149 8.86596 1.21753ZM5.37853 6.96418C5.42079 6.38437 5.51951 5.81006 5.67327 5.24941C6.28042 5.32153 6.89131 5.3573 7.50273 5.35657C8.11472 5.35639 8.72617 5.31971 9.3338 5.24671C9.48727 5.80827 9.58545 6.38349 9.6269 6.96418H5.37853ZM9.6269 8.03593C9.58464 8.61574 9.48592 9.19005 9.33216 9.7507C8.72501 9.67858 8.11412 9.64281 7.5027 9.64353C6.89074 9.64284 6.27932 9.67861 5.67163 9.7507C5.51832 9.19001 5.42016 8.61571 5.3785 8.03593H9.6269ZM7.5027 1.41905C8.11252 2.28335 8.61408 3.21918 8.99617 4.20557C8.5001 4.25826 8.00159 4.28472 7.5027 4.28488C7.00437 4.28428 6.50639 4.25766 6.01083 4.20503C6.39339 3.21931 6.89435 2.28379 7.5027 1.41905ZM2.68526 3.25492C2.8112 3.11237 2.94248 2.97465 3.07966 2.84444C3.11341 2.81229 3.1488 2.78174 3.18308 2.75066C3.31527 2.63027 3.45211 2.51542 3.59356 2.40609C3.63054 2.37767 3.66803 2.35249 3.70555 2.32251C3.85131 2.21534 4.00136 2.1144 4.15568 2.01973L4.26285 1.95489C4.4254 1.85988 4.59187 1.77215 4.76227 1.69177C4.79336 1.6773 4.82391 1.66122 4.85499 1.64675C5.03289 1.56637 5.21457 1.49509 5.39891 1.43239C5.42676 1.42222 5.4525 1.41095 5.48302 1.40131C5.66897 1.33914 5.85814 1.28771 6.05105 1.24055C6.08107 1.23358 6.10999 1.22394 6.14054 1.2175C6.21395 1.20142 6.29006 1.19392 6.36454 1.18051C5.77249 2.07477 5.28813 3.03582 4.92143 4.04365C4.13022 3.90223 3.36152 3.65531 2.63597 3.30952C2.65204 3.2908 2.66919 3.27366 2.68526 3.25492ZM2.00363 4.18466C2.82505 4.60408 3.70248 4.90331 4.60901 5.07314C4.44891 5.69247 4.3486 6.32572 4.30947 6.96421H1.09964C1.18171 5.98018 1.49118 5.02868 2.00363 4.18466ZM2.00363 10.8155C1.49115 9.97146 1.18168 9.01996 1.09964 8.03593H4.30947C4.34878 8.67445 4.44926 9.3077 4.60955 9.927C3.70286 10.0968 2.82524 10.396 2.00363 10.8155ZM6.13947 13.7826C6.10945 13.7756 6.08054 13.766 6.05052 13.759C5.85868 13.714 5.66843 13.6625 5.48249 13.5982C5.45407 13.5886 5.42622 13.5773 5.39834 13.5672C5.214 13.5028 5.03236 13.4316 4.85443 13.3528C4.82334 13.3383 4.79279 13.3222 4.76171 13.3078C4.59131 13.2267 4.42483 13.139 4.26228 13.0447L4.15512 12.9798C4.0008 12.8855 3.85074 12.7846 3.70499 12.677C3.66747 12.6497 3.62998 12.6234 3.59299 12.5935C3.4501 12.4863 3.31326 12.3714 3.18252 12.2489C3.14823 12.2178 3.11285 12.1873 3.07909 12.1551C2.94191 12.0249 2.81117 11.8872 2.6847 11.7446C2.66862 11.7259 2.65148 11.7087 2.6354 11.691C3.36099 11.3452 4.12965 11.0983 4.92087 10.9569C5.28741 11.9645 5.77161 12.9254 6.36341 13.8195C6.28896 13.8062 6.21288 13.7987 6.13947 13.7826ZM7.5027 13.5811C6.89288 12.7168 6.39132 11.781 6.00923 10.7946C7.00164 10.6878 8.00266 10.6878 8.99507 10.7946L8.99454 10.7951C8.61204 11.7808 8.11108 12.7163 7.5027 13.5811ZM12.3202 11.7452C12.1942 11.8877 12.063 12.0255 11.9258 12.1557C11.892 12.1878 11.8566 12.2184 11.8223 12.2495C11.6902 12.3702 11.5533 12.4851 11.4119 12.594C11.3749 12.6224 11.3374 12.6503 11.2999 12.6776C11.1541 12.7848 11.0041 12.8857 10.8497 12.9804L10.7426 13.0452C10.5804 13.1399 10.4139 13.2276 10.2432 13.3083C10.2121 13.3228 10.1815 13.3389 10.1504 13.3534C9.97254 13.4337 9.79086 13.505 9.60652 13.5677C9.57867 13.5779 9.55293 13.5892 9.52241 13.5988C9.33646 13.661 9.14729 13.7124 8.95438 13.7596C8.92436 13.7665 8.89544 13.7762 8.86489 13.7826C8.79148 13.7987 8.71537 13.8062 8.64089 13.8196C9.23269 12.9255 9.71692 11.9646 10.0834 10.957C10.8746 11.0984 11.6433 11.3453 12.3689 11.6911C12.3534 11.7093 12.3362 11.7264 12.3202 11.7452ZM13.0018 10.8155C12.1804 10.3961 11.303 10.0968 10.3964 9.927C10.5565 9.30766 10.6568 8.67442 10.696 8.03593H13.9058C13.8237 9.01993 13.5143 9.97143 13.0018 10.8155Z" fill="white"/>
</svg>
