<svg width="149" height="44" viewBox="0 0 149 44" fill="none" xmlns="http://www.w3.org/2000/svg">
<g clip-path="url(#clip0)">
<path d="M9.56731 43.9969C9.18248 43.9969 8.80707 43.9931 8.42431 43.9845C7.63322 43.9751 6.84401 43.9124 6.06311 43.797C5.33473 43.6828 4.62911 43.4704 3.96961 43.1668C3.31618 42.8658 2.72021 42.4711 2.20441 41.9978C1.68121 41.5298 1.24567 40.987 0.915013 40.3909C0.580743 39.7912 0.349393 39.1485 0.229013 38.4851C0.099073 37.7719 0.028803 37.0508 0.018823 36.328C0.0104572 36.0862 0 35.278 0 35.278V8.70599C0 8.70599 0.010457 7.91016 0.018823 7.67689C0.0282345 6.95531 0.098298 6.23569 0.227963 5.52359C0.348383 4.85834 0.579713 4.21369 0.913963 3.61209C1.2435 3.01631 1.6768 2.47299 2.19706 2.00329C2.7164 1.52952 3.31416 1.13281 3.96856 0.827587C4.62666 0.524997 5.33096 0.314157 6.05796 0.202157C6.84225 0.0850666 7.63386 0.0212866 8.42756 0.0127166L9.56736 -0.000610352H139.427L140.581 0.0136686C141.367 0.0222361 142.152 0.0850647 142.928 0.200249C143.662 0.314479 144.375 0.526769 145.041 0.830439C146.352 1.44611 147.418 2.41974 148.091 3.61484C148.421 4.21171 148.649 4.85144 148.768 5.51114C148.9 6.22891 148.973 6.95434 148.987 7.68154C148.992 8.00806 148.992 8.35742 148.992 8.70584C149.002 9.13707 149.002 9.54736 149.002 9.96244V34.0354C149.002 34.4534 149.002 34.8608 148.992 35.2729C148.992 35.6461 148.992 35.9888 148.986 36.3419C148.972 37.0559 148.9 37.7689 148.77 38.4743C148.652 39.1424 148.422 39.7899 148.088 40.3944C147.755 40.9841 147.322 41.5221 146.805 41.9889C146.289 42.4647 145.692 42.8617 145.037 43.1646C144.373 43.4705 143.662 43.6836 142.928 43.7967C142.147 43.9129 141.358 43.9757 140.567 43.9843C140.197 43.9928 139.809 43.9966 139.433 43.9966L138.063 43.9995L9.57273 43.9966L9.56731 43.9969Z" fill="black"/>
<path d="M52.328 11.6323C52.3638 12.4308 52.0718 13.2093 51.5199 13.7874C50.9007 14.4266 50.0385 14.7715 49.1493 14.7356C48.2555 14.7556 47.3935 14.4045 46.7679 13.7658C46.1225 13.1396 45.7672 12.2727 45.7873 11.3736C45.7642 10.4709 46.1197 9.59954 46.7679 8.97074C47.7494 8.01163 49.2108 7.73554 50.4747 8.27033C50.8632 8.43006 51.2098 8.67709 51.4876 8.99229L50.9165 9.56339C50.4826 9.04072 49.8277 8.75321 49.1493 8.78755C48.4692 8.78422 47.8171 9.05811 47.3434 9.54608C46.8696 10.0341 46.6151 10.694 46.6386 11.3737C46.6242 12.4008 47.2291 13.3357 48.1719 13.7435C49.1147 14.1513 50.2103 13.9518 50.9488 13.2378C51.2811 12.878 51.4757 12.4125 51.4983 11.9232H49.1492V11.1474H52.2849C52.309 11.308 52.3234 11.4699 52.3281 11.6323L52.328 11.6323ZM57.2632 8.9384H54.3538V10.9857H57.0046V11.7615H54.3538V13.8088H57.2632V14.6062H53.5133V8.14093H57.2632V8.93832V8.9384ZM60.7976 14.6063H59.9679V8.9384H58.1576V8.14101H62.651V8.9384H60.7976V14.6063H60.7976ZM65.819 14.6063V8.141H66.6487V14.6063H65.819ZM70.3339 14.6063H69.5042V8.9384H67.6939V8.14101H72.1334V8.9384H70.3339V14.6063H70.3339ZM80.5489 13.7658C79.9204 14.3949 79.0676 14.7483 78.1783 14.7483C77.289 14.7483 76.4362 14.3949 75.8077 13.7658C75.1742 13.134 74.8309 12.2679 74.8595 11.3736C74.8309 10.4794 75.1742 9.61321 75.8077 8.98141C76.4235 8.33377 77.2849 7.97741 78.1783 8.00084C79.0699 7.98674 79.9278 8.34157 80.5489 8.98141C81.1749 9.61815 81.5169 10.4809 81.4972 11.3736C81.5257 12.2679 81.1824 13.134 80.5489 13.7658ZM76.4219 13.227C76.8856 13.6969 77.5182 13.9614 78.1783 13.9614C78.8384 13.9614 79.471 13.6969 79.9347 13.227C80.417 12.7329 80.6776 12.0638 80.6567 11.3736C80.6663 10.6771 80.3897 10.0072 79.8916 9.52023C79.428 9.05036 78.7953 8.78585 78.1352 8.78585C77.4751 8.78585 76.8425 9.05035 76.3788 9.52023C75.9122 10.0214 75.6675 10.6896 75.7 11.3736C75.679 12.0638 75.9396 12.7328 76.4219 13.227ZM82.6717 14.6063V8.14103H83.6738L86.8202 13.1732V8.14103H87.6499V14.6063H86.7879L83.5014 9.33713V14.6063H82.6717H82.6717Z" fill="white" stroke="white" stroke-width="0.5"/>
<path d="M74.655 24.0349C72.1198 24.0409 70.0695 26.1009 70.0754 28.636C70.0814 31.1712 72.1414 33.2215 74.6765 33.2156C77.2117 33.2096 79.262 31.1496 79.2561 28.6145C79.2739 27.3908 78.7941 26.2123 77.9267 25.349C77.0593 24.4857 75.8786 24.0114 74.655 24.0349ZM74.655 31.3946C73.5163 31.4742 72.4446 30.8497 71.9525 29.8197C71.4605 28.7897 71.648 27.5636 72.4255 26.7278C73.203 25.892 74.4124 25.6164 75.4752 26.0328C76.538 26.4493 77.2383 27.473 77.2411 28.6145C77.2762 29.3286 77.0213 30.0265 76.5344 30.55C76.0475 31.0735 75.3697 31.3781 74.655 31.3946L74.655 31.3946ZM64.612 24.0349C62.0768 24.0409 60.0265 26.1009 60.0324 28.636C60.0384 31.1712 62.0984 33.2215 64.6335 33.2156C67.1687 33.2096 69.219 31.1496 69.2131 28.6145C69.2309 27.3908 68.7511 26.2123 67.8837 25.349C67.0163 24.4857 65.8356 24.0114 64.612 24.0349ZM64.612 31.3946C63.4733 31.4742 62.4016 30.8497 61.9095 29.8197C61.4175 28.7897 61.605 27.5636 62.3825 26.7278C63.16 25.892 64.3694 25.6164 65.4322 26.0328C66.495 26.4493 67.1953 27.473 67.1981 28.6145C67.2332 29.3286 66.9783 30.0265 66.4914 30.55C66.0045 31.0735 65.3267 31.3781 64.612 31.3946L64.612 31.3946ZM52.673 25.4465V27.3861H57.328C57.255 28.2996 56.8753 29.1617 56.2504 29.8321C55.3061 30.7942 53.9983 31.3111 52.6514 31.2545C49.7948 31.2545 47.4792 28.9388 47.4792 26.0823C47.4792 23.2257 49.7949 20.9101 52.6514 20.9101C53.9665 20.8905 55.2363 21.39 56.1858 22.3001L57.5543 20.9316C56.2569 19.6484 54.4975 18.9416 52.673 18.9705C50.0642 18.869 47.6089 20.2029 46.2743 22.4467C44.9397 24.6905 44.9397 27.4848 46.2743 29.7287C47.6089 31.9726 50.0642 33.3065 52.673 33.2049C54.5374 33.2794 56.3448 32.554 57.6405 31.2114C58.7721 29.9683 59.375 28.3335 59.3215 26.6534C59.3254 26.249 59.2929 25.8451 59.2245 25.4465H52.673H52.673ZM101.497 26.9551C100.922 25.2625 99.3612 24.1007 97.5747 24.0349C96.3833 24.0326 95.2441 24.5235 94.4276 25.391C93.6111 26.2586 93.19 27.4254 93.2645 28.6145C93.2456 30.6347 94.5588 32.4263 96.491 33.0165C98.4232 33.6066 100.513 32.8544 101.626 31.1683L100.064 30.0907C99.59 30.8806 98.733 31.3604 97.8118 31.3514C96.8559 31.3909 95.9739 30.8386 95.592 29.9614L101.723 27.4292L101.497 26.9551L101.497 26.9551ZM95.2472 28.4852C95.2031 27.8101 95.4333 27.1458 95.8856 26.6427C96.338 26.1396 96.9743 25.8404 97.6502 25.8128C98.3575 25.7675 99.0235 26.1493 99.3419 26.7826L95.2472 28.4851L95.2472 28.4852ZM90.2689 32.9247H92.2839V19.4557H90.2689V32.9247ZM86.9716 25.0586H86.8962C86.2772 24.3848 85.3971 24.0116 84.4825 24.0349C82.0366 24.1535 80.1145 26.1711 80.1145 28.6199C80.1145 31.0687 82.0366 33.0863 84.4825 33.2049C85.4075 33.2235 86.2925 32.8284 86.8962 32.1273H86.9716V32.7846C86.9716 34.541 86.0342 35.4785 84.5256 35.4785C83.4949 35.4559 82.5799 34.8132 82.2089 33.8514L80.4633 34.5734C81.124 36.2328 82.7397 37.3128 84.5257 37.2888C86.8855 37.2888 88.8359 35.8988 88.8359 32.5152V24.3043H86.9717V25.0586L86.9716 25.0586ZM84.6549 31.3946C83.1895 31.3032 82.0478 30.0881 82.0478 28.6199C82.0478 27.1517 83.1895 25.9366 84.6549 25.8452C85.3521 25.8753 86.0072 26.187 86.4704 26.709C86.9335 27.2311 87.165 27.9186 87.1118 28.6145C87.1712 29.3129 86.9422 30.005 86.4782 30.5302C86.0141 31.0554 85.3553 31.3677 84.655 31.3947L84.6549 31.3946ZM110.936 19.4556H106.109V32.9246H108.124V27.817H110.936C112.501 27.9295 113.998 27.1581 114.815 25.8181C115.632 24.4781 115.632 22.7941 114.815 21.4541C113.998 20.1141 112.501 19.3428 110.936 19.4552V19.4556ZM110.936 25.9209H108.124V21.3305H110.979C112.253 21.3305 113.285 22.3629 113.285 23.6365C113.285 24.9101 112.253 25.9425 110.979 25.9425L110.936 25.9209V25.9209ZM123.371 23.9921C121.871 23.8996 120.46 24.7089 119.783 26.0502L121.561 26.7937C121.928 26.132 122.65 25.7479 123.403 25.8131C123.92 25.7528 124.439 25.9025 124.845 26.2288C125.25 26.555 125.507 27.0303 125.558 27.548V27.6773C124.911 27.3367 124.189 27.1591 123.457 27.16C121.539 27.16 119.578 28.2376 119.578 30.1987C119.616 31.0409 119.995 31.8316 120.626 32.39C121.258 32.9485 122.089 33.227 122.929 33.162C123.959 33.2189 124.939 32.7165 125.494 31.8474H125.559V32.925H127.498V27.742C127.498 25.3822 125.709 24.0137 123.414 24.0137L123.371 23.9921L123.371 23.9921ZM123.123 31.3733C122.466 31.3733 121.55 31.0393 121.55 30.2311C121.55 29.1535 122.692 28.7872 123.705 28.7872C124.345 28.7714 124.978 28.9277 125.537 29.2398C125.397 30.45 124.384 31.3706 123.166 31.3949L123.123 31.3733L123.123 31.3733ZM134.567 24.3046L132.261 30.1449H132.196L129.804 24.3046H127.649L131.237 32.4724L129.19 37.0089H131.345L136.808 24.3049H134.567L134.567 24.3046ZM116.464 32.925H118.468V19.456H116.464V32.925Z" fill="white"/>
<path d="M12.4803 8.72296C12.1368 9.14757 11.9674 9.68676 12.0062 10.2316V34.0666C11.9695 34.6165 12.1516 35.1587 12.5127 35.5752L12.5881 35.6614L25.9071 22.3104V21.9871L12.5561 8.64709L12.4807 8.72252L12.4803 8.72296Z" fill="url(#paint0_linear)"/>
<path d="M30.325 26.7609L25.907 22.3106V21.9873L30.325 17.537L30.422 17.6017L35.7128 20.5973C37.2214 21.4486 37.2214 22.8494 35.7128 23.7114L30.4436 26.707L30.3251 26.7609L30.325 26.7609Z" fill="url(#paint1_linear)"/>
<path d="M30.454 26.7069L25.9067 22.1489L12.4807 35.5749C13.109 36.1341 14.0466 36.1659 14.7112 35.6504L30.4542 26.7067" fill="url(#paint2_linear)"/>
<path d="M30.454 17.602L14.711 8.6583C14.0504 8.13539 13.1096 8.16266 12.4805 8.72295L25.9065 22.1489L30.4538 17.6017L30.454 17.602Z" fill="url(#paint3_linear)"/>
<path opacity="0.2" d="M30.325 26.5999L14.711 35.4897C14.0733 35.971 13.1936 35.971 12.5559 35.4897L12.4805 35.5651L12.5559 35.6513C13.1937 36.1326 14.0733 36.1326 14.711 35.6513L30.454 26.7076L30.3247 26.5999L30.325 26.5999Z" fill="black"/>
<path opacity="0.12" d="M12.4803 35.4249C12.1342 34.9975 11.9646 34.4539 12.0062 33.9056V34.0672C11.9695 34.6172 12.1515 35.1593 12.5126 35.5758L12.5881 35.5004L12.4803 35.425L12.4803 35.4249ZM35.7123 23.5499L30.3245 26.5994L30.4215 26.7071L35.7123 23.7007C36.3485 23.4317 36.7867 22.8364 36.8545 22.149C36.7179 22.7709 36.2939 23.2908 35.7123 23.5498L35.7123 23.5499Z" fill="black"/>
<path opacity="0.25" d="M14.7108 8.80913L35.7118 20.7481C36.2934 21.0071 36.7174 21.5271 36.854 22.1489C36.7862 21.4615 36.348 20.8662 35.7118 20.5972L14.7108 8.65823C13.213 7.79619 12.0061 8.50737 12.0061 10.2314V10.3931C12.0061 8.66896 13.213 7.95776 14.7108 8.80906V8.80913Z" fill="white"/>
</g>
<defs>
<linearGradient id="paint0_linear" x1="20.4822" y1="9.98327" x2="9.04598" y2="21.42" gradientUnits="userSpaceOnUse">
<stop stop-color="#00A0FF"/>
<stop offset="0.01" stop-color="#00A1FF"/>
<stop offset="0.26" stop-color="#00BEFF"/>
<stop offset="0.51" stop-color="#00D2FF"/>
<stop offset="0.76" stop-color="#00DFFF"/>
<stop offset="1" stop-color="#00E3FF"/>
</linearGradient>
<linearGradient id="paint1_linear" x1="37.6842" y1="22.149" x2="11.6186" y2="22.149" gradientUnits="userSpaceOnUse">
<stop stop-color="#FFE000"/>
<stop offset="0.41" stop-color="#FFBD00"/>
<stop offset="0.78" stop-color="#FFA500"/>
<stop offset="1" stop-color="#FF9C00"/>
</linearGradient>
<linearGradient id="paint2_linear" x1="27.9866" y1="26.4303" x2="8.42437" y2="45.9937" gradientUnits="userSpaceOnUse">
<stop stop-color="#FF3A44"/>
<stop offset="1" stop-color="#C31162"/>
</linearGradient>
<linearGradient id="paint3_linear" x1="9.097" y1="6.63234" x2="17.8284" y2="15.3639" gradientUnits="userSpaceOnUse">
<stop stop-color="#32A071"/>
<stop offset="0.07" stop-color="#2DA771"/>
<stop offset="0.48" stop-color="#15CF74"/>
<stop offset="0.8" stop-color="#06E775"/>
<stop offset="1" stop-color="#00F076"/>
</linearGradient>
<clipPath id="clip0">
<rect width="149" height="44" fill="white" transform="translate(0 -0.00012207)"/>
</clipPath>
</defs>
</svg>
