<svg width="44" height="44" viewBox="0 0 44 44" fill="none" xmlns="http://www.w3.org/2000/svg">
<rect y="-0.00012207" width="44" height="44" rx="4" fill="black"/>
<g clip-path="url(#clip0)">
<path d="M33.2676 28.6522C32.8631 28.6522 32.5352 28.9802 32.5352 29.3846V33.535H28.3848C27.9803 33.535 27.6523 33.863 27.6523 34.2675C27.6523 34.6719 27.9803 34.9999 28.3848 34.9999H33.2676C33.6721 34.9999 34 34.6719 34 34.2675V29.3846C34 28.9802 33.6721 28.6522 33.2676 28.6522Z" fill="white"/>
<path d="M14.6152 33.535H10.4648V29.3846C10.4648 28.9802 10.1369 28.6522 9.73242 28.6522C9.32793 28.6522 9 28.9802 9 29.3846V34.2675C9 34.6719 9.32793 34.9999 9.73242 34.9999H14.6152C15.0197 34.9999 15.3477 34.6719 15.3477 34.2675C15.3477 33.863 15.0197 33.535 14.6152 33.535Z" fill="white"/>
<path d="M33.2676 9.99988H28.3848C27.9803 9.99988 27.6523 10.3278 27.6523 10.7323C27.6523 11.1368 27.9803 11.4647 28.3848 11.4647H32.5352V15.6151C32.5352 16.0196 32.8631 16.3475 33.2676 16.3475C33.6721 16.3475 34 16.0196 34 15.6151V10.7323C34 10.3278 33.6721 9.99988 33.2676 9.99988Z" fill="white"/>
<path d="M9.73242 16.3475C10.1369 16.3475 10.4648 16.0196 10.4648 15.6151V11.4647H14.6152C15.0197 11.4647 15.3477 11.1368 15.3477 10.7323C15.3477 10.3278 15.0197 9.99988 14.6152 9.99988H9.73242C9.32793 9.99988 9 10.3278 9 10.7323V15.6151C9 16.0196 9.32793 16.3475 9.73242 16.3475Z" fill="white"/>
<path d="M24.4297 20.3026H30.2891C30.6936 20.3026 31.0215 19.9747 31.0215 19.5702V13.7108C31.0215 13.3063 30.6936 12.9784 30.2891 12.9784H24.4297C24.0252 12.9784 23.6973 13.3063 23.6973 13.7108V19.5702C23.6973 19.9747 24.0252 20.3026 24.4297 20.3026ZM25.1621 14.4432H29.5566V18.8378H25.1621V14.4432Z" fill="white"/>
<path d="M27.3594 17.3729C27.7639 17.3729 28.0918 17.045 28.0918 16.6405C28.0918 16.236 27.7639 15.9081 27.3594 15.9081C26.9549 15.9081 26.627 16.236 26.627 16.6405C26.627 17.045 26.9549 17.3729 27.3594 17.3729Z" fill="white"/>
<path d="M18.5703 24.6971H12.7109C12.3064 24.6971 11.9785 25.0251 11.9785 25.4296V31.2889C11.9785 31.6934 12.3064 32.0214 12.7109 32.0214H18.5703C18.9748 32.0214 19.3027 31.6934 19.3027 31.2889V25.4296C19.3027 25.0251 18.9748 24.6971 18.5703 24.6971ZM17.8379 30.5565H13.4434V26.162H17.8379V30.5565Z" fill="white"/>
<path d="M31.0215 31.2889V28.3593C31.0215 27.9548 30.6936 27.6268 30.2891 27.6268C29.8846 27.6268 29.5566 27.9548 29.5566 28.3593V30.5565H27.3594C26.9549 30.5565 26.627 30.8844 26.627 31.2889C26.627 31.6934 26.9549 32.0214 27.3594 32.0214H30.2891C30.6936 32.0214 31.0215 31.6934 31.0215 31.2889Z" fill="white"/>
<path d="M24.4297 23.2323H29.5566V25.4296C29.5566 25.8341 29.8846 26.162 30.2891 26.162C30.6936 26.162 31.0215 25.8341 31.0215 25.4296V22.4999C31.0215 22.0954 30.6936 21.7675 30.2891 21.7675H24.4297C24.0252 21.7675 23.6973 22.0954 23.6973 22.4999C23.6973 22.9044 24.0252 23.2323 24.4297 23.2323Z" fill="white"/>
<path d="M24.4297 30.5565H22.2324V28.3593C22.2324 27.9548 21.9045 27.6268 21.5 27.6268C21.0955 27.6268 20.7676 27.9548 20.7676 28.3593V31.2889C20.7676 31.6934 21.0955 32.0214 21.5 32.0214H24.4297C24.8342 32.0214 25.1621 31.6934 25.1621 31.2889C25.1621 30.8844 24.8342 30.5565 24.4297 30.5565Z" fill="white"/>
<path d="M15.6406 29.0917C16.0451 29.0917 16.373 28.7638 16.373 28.3593C16.373 27.9547 16.0451 27.6268 15.6406 27.6268C15.2361 27.6268 14.9082 27.9547 14.9082 28.3593C14.9082 28.7638 15.2361 29.0917 15.6406 29.0917Z" fill="white"/>
<path d="M18.5703 12.9784H12.7109C12.3064 12.9784 11.9785 13.3063 11.9785 13.7108V19.5702C11.9785 19.9747 12.3064 20.3026 12.7109 20.3026H18.5703C18.9748 20.3026 19.3027 19.9747 19.3027 19.5702V13.7108C19.3027 13.3063 18.9748 12.9784 18.5703 12.9784ZM17.8379 18.8378H13.4434V14.4432H17.8379V18.8378Z" fill="white"/>
<path d="M15.6406 17.3729C16.0451 17.3729 16.373 17.045 16.373 16.6405C16.373 16.236 16.0451 15.9081 15.6406 15.9081C15.2361 15.9081 14.9082 16.236 14.9082 16.6405C14.9082 17.045 15.2361 17.3729 15.6406 17.3729Z" fill="white"/>
<path d="M27.3594 27.6268H24.4297C24.0252 27.6268 23.6973 27.9548 23.6973 28.3593C23.6973 28.7637 24.0252 29.0917 24.4297 29.0917H27.3594C27.7639 29.0917 28.0918 28.7637 28.0918 28.3593C28.0918 27.9548 27.7639 27.6268 27.3594 27.6268Z" fill="white"/>
<path d="M21.5 26.162H27.3594C27.7639 26.162 28.0918 25.8341 28.0918 25.4296C28.0918 25.0251 27.7639 24.6971 27.3594 24.6971H22.2324V22.4999C22.2324 22.0954 21.9045 21.7675 21.5 21.7675C21.0955 21.7675 20.7676 22.0954 20.7676 22.4999V25.4296C20.7676 25.8341 21.0955 26.162 21.5 26.162Z" fill="white"/>
<path d="M12.7109 23.2323H14.6641C15.0686 23.2323 15.3965 22.9044 15.3965 22.4999C15.3965 22.0954 15.0686 21.7675 14.6641 21.7675H12.7109C12.3064 21.7675 11.9785 22.0954 11.9785 22.4999C11.9785 22.9044 12.3064 23.2323 12.7109 23.2323Z" fill="white"/>
<path d="M18.5703 21.7675H17.5938C17.1893 21.7675 16.8613 22.0954 16.8613 22.4999C16.8613 22.9044 17.1893 23.2323 17.5938 23.2323H18.5703C18.9748 23.2323 19.3027 22.9044 19.3027 22.4999C19.3027 22.0954 18.9748 21.7675 18.5703 21.7675Z" fill="white"/>
<path d="M21.5 20.3026C21.9045 20.3026 22.2324 19.9747 22.2324 19.5702V16.6405C22.2324 16.236 21.9045 15.9081 21.5 15.9081C21.0955 15.9081 20.7676 16.236 20.7676 16.6405V19.5702C20.7676 19.9747 21.0955 20.3026 21.5 20.3026Z" fill="white"/>
<path d="M21.5 14.4432C21.9045 14.4432 22.2324 14.1153 22.2324 13.7108C22.2324 13.3063 21.9045 12.9784 21.5 12.9784C21.0955 12.9784 20.7676 13.3063 20.7676 13.7108C20.7676 14.1153 21.0955 14.4432 21.5 14.4432Z" fill="white"/>
</g>
<defs>
<clipPath id="clip0">
<rect width="25" height="25" fill="white" transform="translate(9 9.99988)"/>
</clipPath>
</defs>
</svg>
