<svg width="100" height="100" viewBox="0 0 100 100" fill="none" xmlns="http://www.w3.org/2000/svg">
<g clip-path="url(#clip0)">
<path d="M28.9658 55.7426H15.5129C12.3633 55.7426 9.80078 53.1775 9.80078 50.025V36.5717C9.80078 33.4219 12.3633 30.8594 15.5129 30.8594H28.9658C32.1186 30.8594 34.6834 33.4219 34.6834 36.5717V50.025C34.6834 53.1777 32.1186 55.7426 28.9658 55.7426ZM15.5129 34.7656C14.534 34.7656 13.707 35.5926 13.707 36.5717V50.025C13.707 51.0238 14.5172 51.8363 15.5129 51.8363H28.9658C29.9647 51.8363 30.7772 51.0238 30.7772 50.025V36.5717C30.7772 35.5758 29.9645 34.7656 28.9658 34.7656H15.5129Z" fill="url(#paint0_linear)"/>
<path d="M78.8789 45.2516H42.6504C41.5717 45.2516 40.6973 44.377 40.6973 43.2985C40.6973 42.2199 41.5717 41.3453 42.6504 41.3453H78.8791C79.9578 41.3453 80.8322 42.2199 80.8322 43.2985C80.8322 44.377 79.9576 45.2516 78.8789 45.2516Z" fill="url(#paint1_linear)"/>
<path d="M78.8789 54.7572H42.6504C41.5717 54.7572 40.6973 53.8826 40.6973 52.8041C40.6973 51.7256 41.5717 50.851 42.6504 50.851H78.8791C79.9578 50.851 80.8322 51.7256 80.8322 52.8041C80.8322 53.8826 79.9576 54.7572 78.8789 54.7572Z" fill="url(#paint2_linear)"/>
<path d="M94.1092 0H44.1564C40.9121 0 38.2727 2.64199 38.2727 5.88945V21.0602H6.36094C2.8541 21.0602 0.000976562 23.9133 0.000976562 27.4201V80.192C0.000976562 83.6988 2.85391 86.552 6.36094 86.552H16.4822V98.0469C16.4822 98.7459 16.8559 99.3916 17.4617 99.74C17.7631 99.9135 18.0992 100 18.4354 100C18.7748 100 19.1143 99.9117 19.4178 99.735L42.0703 86.5523H82.4279C85.9379 86.5523 88.7934 83.6992 88.7934 80.1924V35.7457H94.1092C97.3564 35.7457 99.9984 33.1061 99.9984 29.8617V5.88945C99.9984 2.64199 97.3564 0 94.1092 0V0ZM84.8871 80.1922C84.8871 81.5225 83.7609 82.6459 82.4279 82.6459H41.5434C41.1982 82.6459 40.8594 82.7373 40.5609 82.9109L20.3885 94.6504V84.599C20.3885 83.5205 19.5141 82.6459 18.4354 82.6459H6.36094C5.00801 82.6459 3.90723 81.5451 3.90723 80.1922V27.4203C3.90723 26.0672 5.00801 24.9666 6.36094 24.9666H38.2725V29.8617C38.2725 33.1061 40.9119 35.7457 44.1562 35.7457H84.8869V80.1922H84.8871ZM96.0922 29.8617C96.0922 30.9523 95.2025 31.8395 94.1092 31.8395H44.1564C43.066 31.8395 42.1789 30.9523 42.1789 29.8617V5.88945C42.1789 4.7959 43.066 3.90625 44.1564 3.90625H94.1092C95.2027 3.90625 96.0922 4.79609 96.0922 5.88945V29.8617Z" fill="url(#paint3_linear)"/>
<path d="M84.0676 10.1647H78.7197C75.1451 10.1647 72.132 12.6133 71.2656 15.9223H67.0076C66.1406 12.6133 63.1252 10.1647 59.548 10.1647H54.2C49.9482 10.1647 46.4893 13.6237 46.4893 17.8754C46.4893 22.1242 49.9482 25.5809 54.2 25.5809H59.5479C63.1244 25.5809 66.1395 23.1346 67.007 19.8285H71.2658C72.1326 23.1346 75.1455 25.5809 78.7195 25.5809H84.0674C88.3191 25.5809 91.7781 22.1242 91.7781 17.8754C91.7783 13.6237 88.3193 10.1647 84.0676 10.1647ZM59.5479 21.6748H54.2C52.1021 21.6748 50.3955 19.9703 50.3955 17.8756C50.3955 15.7778 52.1021 14.0711 54.2 14.0711H59.5479C60.9311 14.0711 62.1406 14.8156 62.8066 15.9225H61.5076C60.4289 15.9225 59.5545 16.7971 59.5545 17.8756C59.5545 18.9541 60.4289 19.8287 61.5076 19.8287H62.8049C62.1387 20.9324 60.9301 21.6748 59.5479 21.6748ZM84.0676 21.6748H78.7197C77.3396 21.6748 76.1328 20.9326 75.4674 19.8287H76.76C77.8387 19.8287 78.7131 18.9541 78.7131 17.8756C78.7131 16.7971 77.8387 15.9225 76.76 15.9225H75.4656C76.1307 14.8155 77.3385 14.0711 78.7197 14.0711H84.0676C86.1654 14.0711 87.8721 15.7778 87.8721 17.8756C87.8721 19.9703 86.1654 21.6748 84.0676 21.6748Z" fill="url(#paint4_linear)"/>
<path d="M74.257 76.7531H14.5385C11.9262 76.7531 9.80078 74.6277 9.80078 72.0152V67.0822C9.80078 64.4666 11.9262 62.3389 14.5385 62.3389H35.6258C36.7045 62.3389 37.5789 63.2135 37.5789 64.292C37.5789 65.3705 36.7045 66.2451 35.6258 66.2451H14.5385C14.0877 66.2451 13.707 66.6285 13.707 67.0822V72.0152C13.707 72.4738 14.0801 72.8469 14.5385 72.8469H74.257C74.7078 72.8469 75.0885 72.466 75.0885 72.0152V67.0822C75.0885 66.6285 74.7076 66.2451 74.257 66.2451H53.1643C52.0855 66.2451 51.2111 65.3705 51.2111 64.292C51.2111 63.2135 52.0855 62.3389 53.1643 62.3389H74.257C76.8693 62.3389 78.9947 64.4668 78.9947 67.0822V72.0152C78.9949 74.6277 76.8695 76.7531 74.257 76.7531Z" fill="url(#paint5_linear)"/>
<path d="M44.4057 66.2451H44.3945C43.3158 66.2451 42.4414 65.3705 42.4414 64.292C42.4414 63.2135 43.3158 62.3389 44.3945 62.3389C45.4732 62.3389 46.3531 63.2135 46.3531 64.292C46.3531 65.3705 45.4844 66.2451 44.4057 66.2451Z" fill="url(#paint6_linear)"/>
</g>
<defs>
<linearGradient id="paint0_linear" x1="9.80078" y1="30.8594" x2="38.2456" y2="35.9888" gradientUnits="userSpaceOnUse">
<stop stop-color="#0066FF"/>
<stop offset="1" stop-color="#2CE0C5"/>
</linearGradient>
<linearGradient id="paint1_linear" x1="40.6973" y1="41.3453" x2="51.3835" y2="61.1453" gradientUnits="userSpaceOnUse">
<stop stop-color="#0066FF"/>
<stop offset="1" stop-color="#2CE0C5"/>
</linearGradient>
<linearGradient id="paint2_linear" x1="40.6973" y1="50.851" x2="51.3835" y2="70.6509" gradientUnits="userSpaceOnUse">
<stop stop-color="#0066FF"/>
<stop offset="1" stop-color="#2CE0C5"/>
</linearGradient>
<linearGradient id="paint3_linear" x1="0.000976562" y1="0" x2="114.314" y2="20.614" gradientUnits="userSpaceOnUse">
<stop stop-color="#0066FF"/>
<stop offset="1" stop-color="#2CE0C5"/>
</linearGradient>
<linearGradient id="paint4_linear" x1="46.4893" y1="10.1647" x2="88.2302" y2="32.278" gradientUnits="userSpaceOnUse">
<stop stop-color="#0066FF"/>
<stop offset="1" stop-color="#2CE0C5"/>
</linearGradient>
<linearGradient id="paint5_linear" x1="9.80078" y1="62.3389" x2="56.4868" y2="102.754" gradientUnits="userSpaceOnUse">
<stop stop-color="#0066FF"/>
<stop offset="1" stop-color="#2CE0C5"/>
</linearGradient>
<linearGradient id="paint6_linear" x1="42.4414" y1="62.3389" x2="46.9127" y2="63.1463" gradientUnits="userSpaceOnUse">
<stop stop-color="#0066FF"/>
<stop offset="1" stop-color="#2CE0C5"/>
</linearGradient>
<clipPath id="clip0">
<rect width="100" height="100" fill="white"/>
</clipPath>
</defs>
</svg>
