<svg width="100" height="100" viewBox="0 0 100 100" fill="none" xmlns="http://www.w3.org/2000/svg">
<path d="M73.1719 96.0938H73.1475C72.0689 96.0938 71.1943 96.9684 71.1943 98.0469C71.1943 99.1254 72.0689 100 73.1475 100H73.1719C74.2504 100 75.125 99.1254 75.125 98.0469C75.125 96.9684 74.2504 96.0938 73.1719 96.0938Z" fill="url(#paint0_linear)"/>
<path d="M99.423 32.9809L85.5469 19.2025V7.8125C85.5469 3.50469 82.0422 0 77.7344 0H22.2656C17.9578 0 14.4531 3.50469 14.4531 7.8125V19.1047L0.57207 32.9855C0.205859 33.3521 0 33.8488 0 34.3668V84.4727C0 93.0346 6.96563 100 15.5273 100H64.4398C65.5184 100 66.393 99.1254 66.393 98.0469C66.393 96.9684 65.5184 96.0938 64.4398 96.0938H15.5273C13.2408 96.0938 11.1084 95.4273 9.30879 94.2824L12.9703 90.6209H42.9684C44.0469 90.6209 44.9215 89.7463 44.9215 88.6678C44.9215 87.5893 44.0469 86.7146 42.9684 86.7146H16.8764L40.1744 63.4166C45.5924 57.9988 54.4078 57.9988 59.8254 63.4166L90.691 94.2824C88.8916 95.4273 86.7592 96.0938 84.4727 96.0938H81.8359C80.7574 96.0938 79.8828 96.9684 79.8828 98.0469C79.8828 99.1254 80.7574 100 81.8359 100H84.4727C88.451 100 92.0832 98.4947 94.8336 96.0256C94.901 95.9738 94.9666 95.9191 95.0283 95.8574C95.0541 95.8316 95.077 95.8039 95.1012 95.777C98.1135 92.943 100 88.9252 100 84.4727V34.3668C100 33.8465 99.7924 33.3475 99.423 32.9809ZM85.5469 24.7074L95.2799 34.3717L85.5469 44.1047V24.7074ZM14.4531 24.6291V44.1047L4.71543 34.3668L14.4531 24.6291ZM6.40605 91.6605C4.84277 89.6811 3.90625 87.185 3.90625 84.4727V39.0822L31.4453 66.6215L6.40605 91.6605ZM62.5877 60.6545C55.6469 53.7141 44.3531 53.7141 37.4123 60.6545L34.2076 63.8592L18.3594 48.0109V7.8125C18.3594 5.65859 20.1117 3.90625 22.2656 3.90625H77.7344C79.8883 3.90625 81.6406 5.65859 81.6406 7.8125V48.0109L65.7924 63.8592L62.5877 60.6545ZM96.0938 84.4727C96.0938 87.185 95.1572 89.6813 93.5938 91.6607L68.5547 66.6215L96.0938 39.0822V84.4727Z" fill="url(#paint1_linear)"/>
<path d="M51.1721 17.9688H31.5488C30.4703 17.9688 29.5957 18.8434 29.5957 19.9219C29.5957 21.0004 30.4703 21.875 31.5488 21.875H51.1721C52.2506 21.875 53.1252 21.0004 53.1252 19.9219C53.1252 18.8434 52.2506 17.9688 51.1721 17.9688Z" fill="url(#paint2_linear)"/>
<path d="M61.6035 18.541C61.2383 18.1777 60.7344 17.9688 60.2207 17.9688C59.707 17.9688 59.2031 18.1775 58.8398 18.541C58.4766 18.9045 58.2676 19.4082 58.2676 19.9219C58.2676 20.4355 58.4764 20.9395 58.8398 21.3025C59.2051 21.666 59.707 21.875 60.2207 21.875C60.7344 21.875 61.2383 21.666 61.6035 21.3025C61.9666 20.9395 62.1738 20.4355 62.1738 19.9219C62.1738 19.4082 61.9666 18.9043 61.6035 18.541Z" fill="url(#paint3_linear)"/>
<path d="M68.4514 32.0312H31.5488C30.4703 32.0312 29.5957 32.9059 29.5957 33.9844C29.5957 35.0629 30.4703 35.9375 31.5488 35.9375H68.4514C69.5299 35.9375 70.4045 35.0629 70.4045 33.9844C70.4045 32.9059 69.5299 32.0312 68.4514 32.0312Z" fill="url(#paint4_linear)"/>
<path d="M68.4516 46.0938H31.5488C30.4703 46.0938 29.5957 46.9684 29.5957 48.0469C29.5957 49.1254 30.4703 50 31.5488 50H68.4514C69.5301 50 70.4047 49.1254 70.4047 48.0469C70.4047 46.9684 69.5301 46.0938 68.4516 46.0938Z" fill="url(#paint5_linear)"/>
<defs>
<linearGradient id="paint0_linear" x1="71.1943" y1="96.0938" x2="75.6859" y2="96.9088" gradientUnits="userSpaceOnUse">
<stop stop-color="#0066FF"/>
<stop offset="1" stop-color="#2CE0C5"/>
</linearGradient>
<linearGradient id="paint1_linear" x1="0" y1="0" x2="114.316" y2="20.615" gradientUnits="userSpaceOnUse">
<stop stop-color="#0066FF"/>
<stop offset="1" stop-color="#2CE0C5"/>
</linearGradient>
<linearGradient id="paint2_linear" x1="29.5957" y1="17.9688" x2="42.3358" y2="31.8077" gradientUnits="userSpaceOnUse">
<stop stop-color="#0066FF"/>
<stop offset="1" stop-color="#2CE0C5"/>
</linearGradient>
<linearGradient id="paint3_linear" x1="58.2676" y1="17.9688" x2="62.733" y2="18.774" gradientUnits="userSpaceOnUse">
<stop stop-color="#0066FF"/>
<stop offset="1" stop-color="#2CE0C5"/>
</linearGradient>
<linearGradient id="paint4_linear" x1="29.5957" y1="32.0312" x2="40.1837" y2="51.9786" gradientUnits="userSpaceOnUse">
<stop stop-color="#0066FF"/>
<stop offset="1" stop-color="#2CE0C5"/>
</linearGradient>
<linearGradient id="paint5_linear" x1="29.5957" y1="46.0938" x2="40.1837" y2="66.0411" gradientUnits="userSpaceOnUse">
<stop stop-color="#0066FF"/>
<stop offset="1" stop-color="#2CE0C5"/>
</linearGradient>
</defs>
</svg>
