<svg width="100" height="100" viewBox="0 0 100 100" fill="none" xmlns="http://www.w3.org/2000/svg">
<path d="M22.7419 82.065L20.2651 77.9433C19.4604 76.6064 19.226 75.0405 19.6039 73.5337C19.9808 72.0314 20.9227 70.7635 22.256 69.9624C25.0035 68.313 28.5857 69.2013 30.2378 71.9515L35.137 80.1059L32.4149 81.7398L27.5167 73.5864C26.7655 72.3384 25.137 71.9306 23.8909 72.6845C23.2833 73.0487 22.8546 73.6254 22.6829 74.3057C22.5112 74.9878 22.6193 75.6999 22.9863 76.3103L25.4622 80.4319L22.7419 82.065Z" fill="url(#paint0_linear)"/>
<path d="M50.6847 96.173C43.1916 96.173 39.98 94.9841 38.9209 94.4519L20.6204 92.0341L10.3007 86.481C7.58501 85.0196 6.48873 81.7026 7.74395 78.9433L7.73305 78.9369L7.91107 78.6036L7.92197 78.61C9.52051 76.0351 12.8893 75.0986 15.6059 76.5346L22.376 80.1077L37.7874 79.827L40.0381 78.412C37.1171 76.7299 32.8192 73.7771 32.1117 70.6336C31.8256 69.3639 32.1126 68.1513 32.9391 67.125C36.6775 62.4865 53.2696 70.8289 60.6311 74.8716L77.9317 74.9106L77.9244 78.085L59.8109 78.0432L59.454 77.8461C44.1371 69.3857 36.1589 68.1922 35.4105 69.1196C35.1934 69.3875 35.1371 69.6173 35.2089 69.9361C35.683 72.0505 40.5731 75.263 43.8937 76.867L46.4731 78.1132L38.7302 82.9869L21.6167 83.2984L14.1245 79.3439C12.8865 78.6899 11.3579 79.1086 10.6268 80.273C10.0691 81.5237 10.5714 83.0223 11.8048 83.6862L21.6122 88.9623L39.9863 91.3919L40.287 91.5872C40.3242 91.6072 47.6875 95.6135 76.9271 89.9124L77.5347 93.0286C65.2096 95.4282 56.6084 96.173 50.6847 96.173Z" fill="url(#paint1_linear)"/>
<path d="M50.0805 34.9208C40.4521 34.9208 32.6201 27.088 32.6201 17.4604C32.6201 7.83285 40.4521 0 50.0805 0C59.7081 0 67.541 7.83285 67.541 17.4604C67.541 27.088 59.7081 34.9208 50.0805 34.9208ZM50.0805 3.17437C42.2032 3.17437 35.7945 9.58216 35.7945 17.4604C35.7945 25.3378 42.2032 31.7465 50.0805 31.7465C57.957 31.7465 64.3657 25.3378 64.3657 17.4604C64.3657 9.58216 57.957 3.17437 50.0805 3.17437Z" fill="url(#paint2_linear)"/>
<path d="M61.9851 49.206H38.175C35.1124 49.206 32.6201 46.7137 32.6201 43.651C32.6201 40.5875 35.1124 38.0952 38.175 38.0952H61.9851C65.0478 38.0952 67.541 40.5875 67.541 43.651C67.541 46.7137 65.0478 49.206 61.9851 49.206ZM38.175 41.2696C36.8626 41.2696 35.7945 42.3377 35.7945 43.651C35.7945 44.9635 36.8626 46.0316 38.175 46.0316H61.9851C63.2985 46.0316 64.3657 44.9635 64.3657 43.651C64.3657 42.3377 63.2985 41.2696 61.9851 41.2696H38.175Z" fill="url(#paint3_linear)"/>
<path d="M61.9851 65.0796H38.175C35.1124 65.0796 32.6201 62.5864 32.6201 59.5237C32.6201 56.4611 35.1124 53.9679 38.175 53.9679H61.9851C65.0478 53.9679 67.541 56.4611 67.541 59.5237C67.541 62.5864 65.0478 65.0796 61.9851 65.0796ZM38.175 57.1432C36.8626 57.1432 35.7945 58.2104 35.7945 59.5237C35.7945 60.8371 36.8626 61.9043 38.175 61.9043H61.9851C63.2985 61.9043 64.3657 60.8371 64.3657 59.5237C64.3657 58.2104 63.2985 57.1432 61.9851 57.1432H38.175Z" fill="url(#paint4_linear)"/>
<path d="M61.9851 57.1433H38.175C35.1124 57.1433 32.6201 54.6501 32.6201 51.5875C32.6201 48.5239 35.1124 46.0316 38.175 46.0316H61.9851C65.0478 46.0316 67.541 48.5239 67.541 51.5875C67.541 54.6501 65.0478 57.1433 61.9851 57.1433ZM38.175 49.206C36.8626 49.206 35.7945 50.2741 35.7945 51.5875C35.7945 52.9008 36.8626 53.968 38.175 53.968H61.9851C63.2985 53.968 64.3657 52.9008 64.3657 51.5875C64.3657 50.2741 63.2985 49.206 61.9851 49.206H38.175Z" fill="url(#paint5_linear)"/>
<path d="M45.5039 10.0571C45.5039 9.92545 45.5911 9.83826 45.7219 9.83826H51.2432C54.3849 9.83826 55.869 11.4086 55.869 13.7883C55.869 15.4686 55.0833 16.4277 54.1451 16.93V16.9736C55.0615 17.3241 56.1315 18.5022 56.1315 20.3123C56.1315 23.2587 54.2768 24.6774 51.0243 24.6774H45.7219C45.5911 24.6774 45.5039 24.5902 45.5039 24.4585V10.0571ZM51.1769 16.0135C52.4875 16.0135 53.2941 15.2279 53.2941 14.0717C53.2941 12.8936 52.4875 12.1071 51.1769 12.1071H48.2096C48.1215 12.1071 48.0779 12.1507 48.0779 12.2379V15.8836C48.0779 15.9708 48.1215 16.0135 48.2096 16.0135H51.1769ZM48.2096 22.4086H51.3077C52.7491 22.4086 53.5556 21.5794 53.5556 20.3341C53.5556 19.1125 52.7491 18.2833 51.3077 18.2833H48.2096C48.1215 18.2833 48.0779 18.3269 48.0779 18.415V22.276C48.0779 22.365 48.1215 22.4086 48.2096 22.4086Z" fill="url(#paint6_linear)"/>
<path d="M50.874 11.1108C50.4362 11.1108 50.0811 10.7556 50.0811 10.3179V8.73022C50.0811 8.29153 50.4362 7.9364 50.874 7.9364C51.3126 7.9364 51.6678 8.29153 51.6678 8.73022V10.3179C51.6678 10.7556 51.3126 11.1108 50.874 11.1108Z" fill="url(#paint7_linear)"/>
<path d="M50.874 26.9845C50.4362 26.9845 50.0811 26.6293 50.0811 26.1907V24.603C50.0811 24.1643 50.4362 23.8092 50.874 23.8092C51.3126 23.8092 51.6678 24.1643 51.6678 24.603V26.1907C51.6678 26.6293 51.3126 26.9845 50.874 26.9845Z" fill="url(#paint8_linear)"/>
<path d="M91.4417 99.9995H77.1638C76.2873 99.9995 75.5762 99.2902 75.5762 98.4128V71.4011C75.5762 70.5237 76.2873 69.8135 77.1638 69.8135H91.4417C92.3182 69.8135 93.0284 70.5237 93.0284 71.4011V98.4128C93.0284 99.2902 92.3182 99.9995 91.4417 99.9995ZM78.7515 96.8252H89.8541V72.9878H78.7515V96.8252Z" fill="url(#paint9_linear)"/>
<defs>
<linearGradient id="paint0_linear" x1="19.4277" y1="69.1335" x2="37.1208" y2="73.0096" gradientUnits="userSpaceOnUse">
<stop stop-color="#0066FF"/>
<stop offset="1" stop-color="#2CE0C5"/>
</linearGradient>
<linearGradient id="paint1_linear" x1="7.22656" y1="65.7599" x2="78.2064" y2="95.5178" gradientUnits="userSpaceOnUse">
<stop stop-color="#0066FF"/>
<stop offset="1" stop-color="#2CE0C5"/>
</linearGradient>
<linearGradient id="paint2_linear" x1="32.6201" y1="0" x2="72.5402" y2="7.19894" gradientUnits="userSpaceOnUse">
<stop stop-color="#0066FF"/>
<stop offset="1" stop-color="#2CE0C5"/>
</linearGradient>
<linearGradient id="paint3_linear" x1="32.6201" y1="38.0952" x2="63.8166" y2="55.7769" gradientUnits="userSpaceOnUse">
<stop stop-color="#0066FF"/>
<stop offset="1" stop-color="#2CE0C5"/>
</linearGradient>
<linearGradient id="paint4_linear" x1="32.6201" y1="53.9679" x2="63.8179" y2="71.6488" gradientUnits="userSpaceOnUse">
<stop stop-color="#0066FF"/>
<stop offset="1" stop-color="#2CE0C5"/>
</linearGradient>
<linearGradient id="paint5_linear" x1="32.6201" y1="46.0316" x2="63.8179" y2="63.7126" gradientUnits="userSpaceOnUse">
<stop stop-color="#0066FF"/>
<stop offset="1" stop-color="#2CE0C5"/>
</linearGradient>
<linearGradient id="paint6_linear" x1="45.5039" y1="9.83826" x2="57.8422" y2="11.4318" gradientUnits="userSpaceOnUse">
<stop stop-color="#0066FF"/>
<stop offset="1" stop-color="#2CE0C5"/>
</linearGradient>
<linearGradient id="paint7_linear" x1="50.0811" y1="7.9364" x2="51.9388" y2="8.10386" gradientUnits="userSpaceOnUse">
<stop stop-color="#0066FF"/>
<stop offset="1" stop-color="#2CE0C5"/>
</linearGradient>
<linearGradient id="paint8_linear" x1="50.0811" y1="23.8092" x2="51.9388" y2="23.9766" gradientUnits="userSpaceOnUse">
<stop stop-color="#0066FF"/>
<stop offset="1" stop-color="#2CE0C5"/>
</linearGradient>
<linearGradient id="paint9_linear" x1="75.5762" y1="69.8135" x2="95.9541" y2="71.9381" gradientUnits="userSpaceOnUse">
<stop stop-color="#0066FF"/>
<stop offset="1" stop-color="#2CE0C5"/>
</linearGradient>
</defs>
</svg>
