<svg width="50" height="57" viewBox="0 0 50 57" fill="none" xmlns="http://www.w3.org/2000/svg">
<path d="M10.6541 48.5689V17.4831L14.3287 19.3602V48.5903L10.6541 48.5689ZM23.1984 55.3266V24.4876L26.8729 24.5519V55.3266H23.1984ZM0 42.9696V14.7049L3.69569 12.9135V42.1436L0 42.9696ZM24.3361 27.8879L0.454041 16.2602L4.7516 14.2651L25.9305 24.5197L24.3467 27.8879H24.3361ZM48.1522 17.9014L23.5679 3.90314L25.0356 0.492065L49.9498 14.6405L48.1627 17.9014H48.1522ZM25.1623 57L0 43.0339L1.78449 39.7703L26.762 53.6426L25.1623 57ZM2.86152 17.3543L0 14.7049L25.0356 0.556425L26.7832 3.90045L2.86152 17.3543ZM46.3228 42.8301V15.9384L49.9974 14.6512V42.8408L46.3228 42.8301ZM25.2732 43.0473L23.5838 39.7328L47.2942 27.2684L48.9837 30.5857L25.2732 43.0581V43.0473ZM24.4813 28.4269L22.8974 25.0588L47.1834 13.2031L48.7672 16.5713L24.4813 28.4269ZM25.165 56.9893L23.5574 53.6292L47.5978 39.8803L50 42.7658L25.165 56.9785V56.9893Z" fill="url(#paint0_linear)"/>
<defs>
<linearGradient id="paint0_linear" x1="0" y1="0.492065" x2="57.5514" y2="9.67527" gradientUnits="userSpaceOnUse">
<stop stop-color="#0066FF"/>
<stop offset="1" stop-color="#2CE0C5"/>
</linearGradient>
</defs>
</svg>
