<svg width="381" height="617" viewBox="0 0 381 617" fill="none" xmlns="http://www.w3.org/2000/svg">
<g clip-path="url(#clip0)">
<path d="M267.203 509.079L252.928 500.668V437.792L242.688 418.286V373.165H244.592V417.81L254.831 437.316V499.583L267.184 506.853L330.449 467.974L331.439 469.591L267.203 509.079Z" fill="white" fill-opacity="0.4"/>
<path d="M336.501 469.61C334.37 470.847 330.887 470.828 328.736 469.591C326.585 468.354 326.566 466.337 328.717 465.119C330.849 463.882 334.332 463.901 336.482 465.138C338.633 466.356 338.633 468.373 336.501 469.61Z" fill="#2AF6FF"/>
<path d="M253.88 545.237L239.605 536.825V473.949L229.365 454.443V409.322H231.269V453.967L241.508 473.473V535.741L253.861 543.01L317.126 504.131L318.115 505.749L253.88 545.237Z" fill="white" fill-opacity="0.4"/>
<path d="M323.178 505.768C321.046 507.005 317.563 506.986 315.413 505.749C313.262 504.512 313.243 502.495 315.394 501.277C317.525 500.04 321.008 500.059 323.159 501.296C325.31 502.514 325.31 504.531 323.178 505.768Z" fill="#2AF6FF"/>
<path d="M125.959 509.631L125.464 509.327L64.4639 471.647L65.4726 470.029L125.959 507.404L153.557 490.848V451.646L174.493 417.867V373.26H176.396V418.4L155.46 452.179V491.933L125.959 509.631Z" fill="white" fill-opacity="0.4"/>
<path d="M66.0062 472.598C63.8745 473.835 60.3915 473.816 58.2407 472.579C56.09 471.342 56.071 469.325 58.2217 468.107C60.3534 466.87 63.8364 466.889 65.9871 468.126C68.1378 469.363 68.1378 471.38 66.0062 472.598Z" fill="#2AF6FF"/>
<path d="M126.188 545.313L125.693 545.008L64.7119 507.328L65.7016 505.711L126.207 543.086L153.786 526.53V487.327L174.722 453.549V408.942H176.625V454.082L155.689 487.86V527.615L126.188 545.313Z" fill="white" fill-opacity="0.4"/>
<path d="M66.2347 508.28C64.103 509.517 60.62 509.498 58.4693 508.261C56.3185 507.024 56.2995 505.007 58.4502 503.789C60.5819 502.552 64.0649 502.571 66.2156 503.808C68.3664 505.045 68.3854 507.062 66.2347 508.28Z" fill="#2AF6FF"/>
<path d="M197.237 578.578V595.439L306.143 531.934V515.074L197.237 578.578Z" fill="url(#paint0_linear)"/>
<path d="M197.295 578.578V595.439L88.0459 531.763V514.96L197.295 578.578Z" fill="url(#paint1_linear)"/>
<path d="M88.0459 514.96L197.295 578.578L306.144 515.074L196.762 451.379L88.0459 514.96Z" fill="url(#paint2_linear)"/>
<path d="M197.218 556.655V574.448L298.416 515.454V497.642L197.218 556.655Z" fill="url(#paint3_linear)"/>
<path d="M197.275 556.655V574.448L95.7539 515.283V497.528L197.275 556.655Z" fill="url(#paint4_linear)"/>
<path d="M197.237 543.448V570.128L306.143 506.624V479.944L197.237 543.448Z" fill="url(#paint5_linear)"/>
<path d="M197.295 543.448V570.128L88.0459 506.434V479.83L197.295 543.448Z" fill="url(#paint6_linear)"/>
<path d="M88.0459 479.83L197.295 543.448L306.144 479.944L196.762 416.249L88.0459 479.83Z" fill="url(#paint7_linear)"/>
<path d="M197.218 521.658V539.471L298.416 480.458V462.645L197.218 521.658Z" fill="url(#paint8_linear)"/>
<path d="M197.275 521.658V539.471L95.7539 480.286V462.55L197.275 521.658Z" fill="url(#paint9_linear)"/>
<path d="M197.237 498.651V535.132L306.143 471.628V435.127L197.237 498.651Z" fill="url(#paint10_linear)"/>
<path d="M197.295 498.651V535.132L88.0459 471.437V435.032L197.295 498.651Z" fill="url(#paint11_linear)"/>
<path d="M88.0459 435.032L197.295 498.651L306.144 435.127L196.762 371.452L88.0459 435.032Z" fill="url(#paint12_linear)"/>
<path d="M197.218 476.328V494.14L298.416 435.127V417.315L197.218 476.328Z" fill="url(#paint13_linear)"/>
<path d="M197.275 476.328V494.14L95.7539 434.956V417.22L197.275 476.328Z" fill="url(#paint14_linear)"/>
<path d="M197.237 440.894V489.154L306.143 425.65V377.39L197.237 440.894Z" fill="url(#paint15_linear)"/>
<path d="M197.295 440.894V489.155L88.0459 425.46V377.276L197.295 440.894Z" fill="url(#paint16_linear)"/>
<path d="M88.0459 377.275L197.295 440.894L306.144 377.39L196.762 313.695L88.0459 377.275Z" fill="url(#paint17_linear)"/>
<path d="M122.228 419.009C122.228 421.483 120.477 422.472 118.327 421.235C116.176 419.998 114.425 416.992 114.425 414.518C114.425 412.044 116.176 411.054 118.327 412.291C120.477 413.547 122.228 416.535 122.228 419.009Z" fill="#2AF6FF"/>
<path d="M245.315 436.345C245.315 438.819 243.564 441.826 241.413 443.063C239.263 444.3 237.512 443.311 237.512 440.837C237.512 438.363 239.263 435.356 241.413 434.119C243.583 432.882 245.315 433.871 245.315 436.345Z" fill="#2AF6FF"/>
<path d="M280.697 505.482C280.697 507.956 278.946 510.963 276.795 512.2C274.645 513.437 272.894 512.448 272.894 509.974C272.894 507.5 274.645 504.493 276.795 503.256C278.946 502.019 280.697 503.008 280.697 505.482Z" fill="#2AF6FF"/>
<path d="M249.121 612.585L209.229 588.664L209.324 548.244L240.481 483.255V438.591H242.384V483.674L242.289 483.883L211.132 548.853V587.598L250.092 610.967L249.121 612.585Z" fill="white" fill-opacity="0.4"/>
<path d="M267.849 472.979C267.849 475.453 266.098 478.46 263.948 479.696C261.797 480.933 260.046 479.944 260.046 477.47C260.046 474.996 261.797 471.989 263.948 470.752C266.098 469.515 267.849 470.505 267.849 472.979Z" fill="#2AF6FF"/>
<path d="M308.199 612.395L237.777 571.08V559.3L237.93 559.072L262.996 519.812V475.224H264.899V520.383L264.747 520.612L239.681 559.871V569.995L308.18 610.187L320.856 602.537L321.826 604.154L308.199 612.395Z" fill="white" fill-opacity="0.4"/>
<path d="M69.336 554.999L68.8412 554.695L7.84082 516.996L8.84956 515.378L69.336 552.773L96.9337 536.216V496.995L117.87 463.216V418.609H119.773V463.749L98.837 497.528V537.282L69.336 554.999Z" fill="white" fill-opacity="0.4"/>
<path d="M9.38311 517.966C7.25143 519.203 3.76842 519.184 1.6177 517.947C-0.533013 516.71 -0.552046 514.693 1.59867 513.475C3.73035 512.238 7.21337 512.257 9.36408 513.494C11.5148 514.712 11.5148 516.729 9.38311 517.966Z" fill="#2AF6FF"/>
<path d="M148.399 492.275C148.399 494.749 146.648 495.739 144.497 494.502C142.347 493.265 140.596 490.258 140.596 487.784C140.596 485.31 142.347 484.321 144.497 485.558C146.648 486.814 148.399 489.801 148.399 492.275Z" fill="#2AF6FF"/>
<path d="M82.1842 590.034L58.4121 578.388L59.2305 576.675L82.089 587.865L133.097 557.625V532.182L144.041 515.53V491.876H145.944V516.101L135 532.753V558.691L134.544 558.977L82.1842 590.034Z" fill="white" fill-opacity="0.4"/>
<path d="M59.3821 579.777C57.2505 581.014 53.7674 580.995 51.6167 579.758C49.466 578.521 49.447 576.503 51.5977 575.286C53.7294 574.049 57.2124 574.068 59.3631 575.305C61.5138 576.542 61.5138 578.559 59.3821 579.777Z" fill="#2AF6FF"/>
<path d="M171.734 460.971C171.734 463.445 169.983 464.434 167.832 463.197C165.682 461.96 163.931 458.953 163.931 456.48C163.931 454.006 165.682 453.016 167.832 454.253C169.983 455.509 171.734 458.516 171.734 460.971Z" fill="#2AF6FF"/>
<path d="M161.742 533.286C161.742 535.76 159.991 536.749 157.84 535.512C155.69 534.275 153.938 531.269 153.938 528.795C153.938 526.321 155.69 525.331 157.84 526.568C159.991 527.824 161.742 530.831 161.742 533.286Z" fill="#2AF6FF"/>
<path d="M164.901 600.501L163.931 598.864L183.059 587.598V548.814L166.881 506.453V461.58H168.784V506.282L184.962 548.643V588.664L164.901 600.501Z" fill="white" fill-opacity="0.4"/>
<path d="M167.831 602.404C165.7 603.641 162.217 603.622 160.066 602.385C157.915 601.148 157.896 599.131 160.047 597.913C162.179 596.676 165.662 596.695 167.812 597.932C169.963 599.169 169.963 601.167 167.831 602.404Z" fill="#2AF6FF"/>
<path d="M92.6518 611.805L91.7002 610.149L157.839 572.355V533.419H159.743V573.459L159.267 573.744L92.6518 611.805Z" fill="white" fill-opacity="0.4"/>
<path d="M95.6019 613.689C93.4702 614.926 89.9872 614.907 87.8365 613.67C85.6857 612.433 85.6667 610.415 87.8174 609.198C89.9491 607.961 93.4321 607.98 95.5828 609.217C97.7145 610.454 97.7336 612.452 95.6019 613.689Z" fill="#2AF6FF"/>
<path d="M255.953 616.068C253.822 617.304 250.339 617.285 248.188 616.048C246.037 614.812 246.018 612.794 248.169 611.576C250.301 610.339 253.784 610.358 255.934 611.595C258.066 612.832 258.085 614.831 255.953 616.068Z" fill="#2AF6FF"/>
<path d="M350.243 557.549C348.111 558.786 344.628 558.767 342.477 557.53C340.326 556.293 340.307 554.276 342.458 553.058C344.59 551.821 348.073 551.84 350.223 553.077C352.355 554.314 352.374 556.312 350.243 557.549Z" fill="#2AF6FF"/>
<path d="M326.909 604.174C324.777 605.411 321.294 605.392 319.143 604.155C316.992 602.918 316.973 600.9 319.124 599.682C321.256 598.445 324.739 598.464 326.889 599.701C329.021 600.919 329.04 602.937 326.909 604.174Z" fill="#2AF6FF"/>
<path d="M290.442 407.8C290.442 410.274 288.691 413.281 286.54 414.518C284.39 415.755 282.639 414.765 282.639 412.291C282.639 409.817 284.39 406.81 286.54 405.573C288.691 404.336 290.442 405.326 290.442 407.8Z" fill="#2AF6FF"/>
<path d="M310.102 545.941L295.828 537.53V474.653L285.588 455.147V410.046H287.491V454.691L297.731 474.197V536.445L310.102 543.733L373.348 504.835L374.338 506.472L310.102 545.941Z" fill="white" fill-opacity="0.4"/>
<path d="M379.402 506.472C377.27 507.709 373.787 507.69 371.636 506.453C369.486 505.216 369.467 503.199 371.617 501.981C373.749 500.744 377.232 500.763 379.383 502C381.533 503.237 381.533 505.235 379.402 506.472Z" fill="#2AF6FF"/>
<path d="M345.865 556.617L344.932 554.961L316.364 571.346L277.423 548.738V509.783H275.52V549.823L315.888 573.249L316.84 573.268L345.865 556.617Z" fill="white" fill-opacity="0.4"/>
<path d="M223.236 393.033H221.333V381.215L196.343 367.056V170.302L165.833 124.078L165.852 79.5847H167.755L167.736 123.507L198.246 169.731V365.953L223.236 380.111V393.033Z" fill="white"/>
<path d="M251.138 372.08H249.235V362.527L226.414 349.225L202.338 363.536V192.529L202.528 192.282L254.659 121.737L256.182 122.879L204.241 193.157V360.186L226.414 347.017L251.138 361.442V372.08Z" fill="white"/>
<path d="M146.534 355.448H144.63V320.66L184.085 343.04V260.144L161.512 212.892L97.0101 183.452L96.8769 183.281L60.8096 141.623L62.2561 140.367L98.1901 181.892L162.94 211.446L185.989 259.935V346.313L146.534 323.915V355.448Z" fill="white"/>
<path d="M168.402 264.73L154.222 234.225L74.0176 197.515L74.7979 195.784L155.669 232.778L170.115 263.931L168.402 264.73Z" fill="white"/>
<path d="M174.512 381.177H172.608V366.143L190.29 356.628V225.128L175.387 194.585L144.211 182.615L119.944 154.26L121.391 153.023L145.353 180.997L176.757 193.062L192.193 224.691V357.769L174.512 367.285V381.177Z" fill="white"/>
<path d="M185.836 186.021L168.687 151.062L158.162 146.8L118.136 99.852L119.582 98.615L159.304 145.22L170.076 149.578L187.549 185.184L185.836 186.021Z" fill="white"/>
<path d="M288.728 274.969C277.556 274.969 268.458 265.872 268.458 254.701C268.458 243.531 277.556 234.434 288.728 234.434C299.9 234.434 308.998 243.531 308.998 254.701C308.998 265.872 299.9 274.969 288.728 274.969ZM288.728 236.337C278.603 236.337 270.361 244.577 270.361 254.701C270.361 264.826 278.603 273.066 288.728 273.066C298.854 273.066 307.095 264.826 307.095 254.701C307.095 244.577 298.854 236.337 288.728 236.337Z" fill="white" fill-opacity="0.4"/>
<path d="M106.012 263.893C94.8399 263.893 85.7422 254.796 85.7422 243.626C85.7422 232.455 94.8399 223.358 106.012 223.358C117.184 223.358 126.282 232.455 126.282 243.626C126.282 254.796 117.184 263.893 106.012 263.893ZM106.012 225.281C95.8867 225.281 87.6455 233.521 87.6455 243.645C87.6455 253.769 95.8867 262.009 106.012 262.009C116.138 262.009 124.379 253.769 124.379 243.645C124.379 233.521 116.138 225.281 106.012 225.281Z" fill="white" fill-opacity="0.4"/>
<path d="M50.189 147.085C39.0167 147.085 29.9189 137.989 29.9189 126.818C29.9189 115.647 38.9976 106.57 50.189 106.57C61.3613 106.57 70.459 115.666 70.459 126.837C70.459 138.008 61.3613 147.085 50.189 147.085ZM50.189 108.473C40.0635 108.473 31.8222 116.713 31.8222 126.837C31.8222 136.961 40.0635 145.201 50.189 145.201C60.3144 145.201 68.5557 136.961 68.5557 126.837C68.5557 116.713 60.3144 108.473 50.189 108.473Z" fill="white" fill-opacity="0.4"/>
<path d="M110.561 157.78C99.3887 157.78 90.291 148.684 90.291 137.513C90.291 126.342 99.3887 117.246 110.561 117.246C121.733 117.246 130.831 126.342 130.831 137.513C130.831 148.703 121.733 157.78 110.561 157.78ZM110.561 119.149C100.436 119.149 92.1943 127.389 92.1943 137.513C92.1943 147.637 100.436 155.877 110.561 155.877C120.687 155.877 128.928 147.637 128.928 137.513C128.928 127.389 120.687 119.149 110.561 119.149Z" fill="white" fill-opacity="0.4"/>
<path d="M55.3852 210.209C44.2129 210.209 35.1152 201.112 35.1152 189.941C35.1152 178.771 44.2129 169.674 55.3852 169.674C66.5575 169.674 75.6552 178.771 75.6552 189.941C75.6552 201.112 66.5575 210.209 55.3852 210.209ZM55.3852 171.577C45.2598 171.577 37.0185 179.817 37.0185 189.941C37.0185 200.065 45.2598 208.306 55.3852 208.306C65.5107 208.306 73.752 200.065 73.752 189.941C73.752 179.817 65.5107 171.577 55.3852 171.577Z" fill="white" fill-opacity="0.4"/>
<path d="M106.355 103.62C95.1827 103.62 86.085 94.5235 86.085 83.3527C86.085 72.1819 95.1827 63.0854 106.355 63.0854C117.527 63.0854 126.625 72.1819 126.625 83.3527C126.625 94.5235 117.527 103.62 106.355 103.62ZM106.355 64.9885C96.2295 64.9885 87.9882 73.2286 87.9882 83.3527C87.9882 93.4768 96.2295 101.717 106.355 101.717C116.48 101.717 124.722 93.4768 124.722 83.3527C124.722 73.2286 116.48 64.9885 106.355 64.9885Z" fill="white" fill-opacity="0.4"/>
<path d="M166.707 79.3753C155.535 79.3753 146.438 70.2789 146.438 59.1081C146.438 47.9373 155.535 38.8408 166.707 38.8408C177.88 38.8408 186.977 47.9373 186.977 59.1081C186.977 70.2789 177.88 79.3753 166.707 79.3753ZM166.707 40.7438C156.582 40.7438 148.341 48.984 148.341 59.1081C148.341 69.2322 156.582 77.4723 166.707 77.4723C176.833 77.4723 185.074 69.2322 185.074 59.1081C185.074 48.984 176.833 40.7438 166.707 40.7438Z" fill="white" fill-opacity="0.4"/>
<path d="M198.207 40.5345C187.035 40.5345 177.938 31.438 177.938 20.2673C177.938 9.09648 187.035 0 198.207 0C209.38 0 218.477 9.09648 218.477 20.2673C218.477 31.438 209.38 40.5345 198.207 40.5345ZM198.207 1.90303C188.082 1.90303 179.841 10.1431 179.841 20.2673C179.841 30.3914 188.082 38.6315 198.207 38.6315C208.333 38.6315 216.574 30.3914 216.574 20.2673C216.574 10.1431 208.333 1.90303 198.207 1.90303Z" fill="white" fill-opacity="0.4"/>
<path d="M248.625 66.3205C237.453 66.3205 228.355 57.2241 228.355 46.0533C228.355 34.8825 237.453 25.786 248.625 25.786C259.798 25.786 268.895 34.8825 268.895 46.0533C268.895 57.2241 259.798 66.3205 248.625 66.3205ZM248.625 27.689C238.5 27.689 230.259 35.9292 230.259 46.0533C230.259 56.1774 238.5 64.4175 248.625 64.4175C258.751 64.4175 266.992 56.1774 266.992 46.0533C266.992 35.9292 258.751 27.689 248.625 27.689Z" fill="white" fill-opacity="0.4"/>
<path d="M264.727 124.686C253.555 124.686 244.457 115.59 244.457 104.419C244.457 93.2483 253.555 84.1519 264.727 84.1519C275.899 84.1519 284.997 93.2483 284.997 104.419C284.997 115.59 275.899 124.686 264.727 124.686ZM264.727 86.0549C254.602 86.0549 246.36 94.295 246.36 104.419C246.36 114.543 254.602 122.783 264.727 122.783C274.853 122.783 283.094 114.543 283.094 104.419C283.094 94.295 274.853 86.0549 264.727 86.0549Z" fill="white" fill-opacity="0.4"/>
<path d="M310.082 81.4306C298.91 81.4306 289.812 72.3342 289.812 61.1634C289.812 49.9926 298.91 40.8961 310.082 40.8961C321.255 40.8961 330.352 49.9926 330.352 61.1634C330.352 72.3342 321.274 81.4306 310.082 81.4306ZM310.082 42.7991C299.957 42.7991 291.716 51.0393 291.716 61.1634C291.716 71.2875 299.957 79.5276 310.082 79.5276C320.208 79.5276 328.449 71.2875 328.449 61.1634C328.449 51.0393 320.227 42.7991 310.082 42.7991Z" fill="white" fill-opacity="0.4"/>
<path d="M332.922 133.402C321.75 133.402 312.652 124.306 312.652 113.135C312.652 101.964 321.75 92.8678 332.922 92.8678C344.095 92.8678 353.192 101.964 353.192 113.135C353.192 124.306 344.095 133.402 332.922 133.402ZM332.922 94.7708C322.797 94.7708 314.556 103.011 314.556 113.135C314.556 123.259 322.797 131.499 332.922 131.499C343.048 131.499 351.289 123.259 351.289 113.135C351.289 103.011 343.048 94.7708 332.922 94.7708Z" fill="white" fill-opacity="0.4"/>
<path d="M342.838 204.937C331.666 204.937 322.568 195.841 322.568 184.67C322.568 173.499 331.666 164.403 342.838 164.403C354.011 164.403 363.108 173.499 363.108 184.67C363.108 195.86 354.011 204.937 342.838 204.937ZM342.838 166.306C332.713 166.306 324.472 174.546 324.472 184.67C324.472 194.794 332.713 203.034 342.838 203.034C352.964 203.034 361.205 194.794 361.205 184.67C361.205 174.546 352.964 166.306 342.838 166.306Z" fill="white" fill-opacity="0.4"/>
<path d="M226.033 394.955C223.902 396.192 220.419 396.173 218.268 394.936C216.117 393.699 216.098 391.681 218.249 390.463C220.381 389.226 223.864 389.246 226.014 390.482C228.165 391.7 228.184 393.718 226.033 394.955Z" fill="white" fill-opacity="0.4"/>
<path d="M254.297 374.897C252.165 376.134 248.682 376.115 246.532 374.878C244.381 373.641 244.362 371.623 246.513 370.406C248.644 369.169 252.127 369.188 254.278 370.425C256.41 371.662 256.429 373.66 254.297 374.897Z" fill="white" fill-opacity="0.4"/>
<path d="M208.181 342.621V253.826L208.371 253.579L258.542 187.068L258.732 186.973L321.578 155.782L328.012 131.747L329.839 132.241L323.196 157.114L259.779 188.571L210.084 254.454V339.234L231.172 326.503V340.832H229.269V329.871L208.181 342.621Z" fill="white"/>
<path d="M222.342 288.975L221.485 287.262L270.571 262.846L271.428 264.54L222.342 288.975Z" fill="white"/>
<path d="M233.951 343.173C231.82 344.41 228.337 344.391 226.186 343.154C224.035 341.917 224.016 339.9 226.167 338.682C228.299 337.445 231.782 337.464 233.932 338.701C236.083 339.938 236.102 341.936 233.951 343.173Z" fill="white" fill-opacity="0.4"/>
<path d="M149.56 358.036C147.428 359.273 143.945 359.254 141.794 358.017C139.644 356.78 139.625 354.763 141.775 353.545C143.907 352.308 147.39 352.327 149.541 353.564C151.673 354.782 151.692 356.799 149.56 358.036Z" fill="white" fill-opacity="0.4"/>
<path d="M177.499 384.126C175.368 385.363 171.885 385.344 169.734 384.107C167.583 382.87 167.564 380.853 169.715 379.635C171.847 378.398 175.33 378.417 177.48 379.654C179.631 380.891 179.65 382.908 177.499 384.126Z" fill="white" fill-opacity="0.4"/>
<path d="M173.389 404.945H171.485V395.754L190.785 384.488V370.9H192.688V385.573L173.389 396.839V404.945Z" fill="white" fill-opacity="0.4"/>
<path d="M176.377 407.914C174.246 409.151 170.763 409.132 168.612 407.895C166.461 406.658 166.442 404.641 168.593 403.423C170.725 402.186 174.208 402.205 176.358 403.442C178.509 404.679 178.509 406.677 176.377 407.914Z" fill="white" fill-opacity="0.4"/>
<path d="M195.619 377.047C195.619 379.521 193.868 380.511 191.717 379.274C189.566 378.037 187.815 375.03 187.815 372.556C187.815 370.082 189.566 369.092 191.717 370.329C193.887 371.566 195.619 374.573 195.619 377.047Z" fill="white" fill-opacity="0.4"/>
<path d="M254.164 397.543H252.26V389.436L222.341 372.251V357.579H224.244V371.148L254.164 388.332V397.543Z" fill="white" fill-opacity="0.4"/>
<path d="M249.272 400.492C251.404 401.729 254.887 401.71 257.038 400.473C259.188 399.236 259.207 397.219 257.057 396.001C254.925 394.764 251.442 394.783 249.291 396.02C247.14 397.257 247.14 399.255 249.272 400.492Z" fill="white" fill-opacity="0.4"/>
<path d="M219.41 363.707C219.41 366.181 221.161 367.17 223.312 365.933C225.463 364.696 227.214 361.69 227.214 359.216C227.214 356.742 225.463 355.752 223.312 356.989C221.142 358.245 219.41 361.252 219.41 363.707Z" fill="white" fill-opacity="0.4"/>
<path d="M135.97 395.411H134.066V380.758L168.744 360.757V350.291H170.648V361.861L135.97 381.862V395.411Z" fill="white" fill-opacity="0.4"/>
<path d="M138.958 398.38C136.827 399.617 133.344 399.598 131.193 398.361C129.042 397.124 129.023 395.107 131.174 393.889C133.306 392.652 136.789 392.671 138.939 393.908C141.09 395.145 141.09 397.143 138.958 398.38Z" fill="white" fill-opacity="0.4"/>
<path d="M173.597 350.271C173.597 352.745 171.846 353.735 169.696 352.498C167.545 351.261 165.794 348.254 165.794 345.78C165.794 343.306 167.545 342.317 169.696 343.554C171.846 344.791 173.597 347.798 173.597 350.271Z" fill="white" fill-opacity="0.4"/>
<path d="M173.618 322.107C173.618 324.581 171.867 325.57 169.716 324.333C167.565 323.096 165.814 320.089 165.814 317.616C165.814 315.142 167.565 314.152 169.716 315.389C171.867 316.626 173.618 319.633 173.618 322.107Z" fill="white" fill-opacity="0.4"/>
<path d="M173.618 267.395C173.618 269.869 171.867 270.858 169.716 269.621C167.565 268.384 165.814 265.377 165.814 262.903C165.814 260.43 167.565 259.44 169.716 260.677C171.867 261.933 173.618 264.94 173.618 267.395Z" fill="white" fill-opacity="0.4"/>
<path d="M189.604 185.621C189.604 188.095 187.853 189.085 185.703 187.848C183.552 186.611 181.801 183.604 181.801 181.13C181.801 178.656 183.552 177.667 185.703 178.904C187.872 180.16 189.604 183.167 189.604 185.621Z" fill="white" fill-opacity="0.4"/>
<path d="M224.663 267.908C224.663 270.382 222.912 273.389 220.761 274.626C218.61 275.863 216.859 274.874 216.859 272.4C216.859 269.926 218.61 266.919 220.761 265.682C222.912 264.445 224.663 265.434 224.663 267.908Z" fill="white" fill-opacity="0.4"/>
<path d="M224.169 287.472C224.169 289.945 222.418 292.952 220.267 294.189C218.116 295.426 216.365 294.437 216.365 291.963C216.365 289.489 218.116 286.482 220.267 285.245C222.437 284.008 224.169 284.998 224.169 287.472Z" fill="white" fill-opacity="0.4"/>
<path d="M223.966 203.964C225.494 201.351 225.511 198.518 224.005 197.638C222.498 196.757 220.039 198.162 218.511 200.775C216.983 203.388 216.965 206.22 218.472 207.101C219.978 207.981 222.438 206.577 223.966 203.964Z" fill="white" fill-opacity="0.4"/>
<path d="M207.325 142.994C207.325 145.468 205.574 148.474 203.423 149.711C201.273 150.948 199.521 149.959 199.521 147.485C199.521 145.011 201.273 142.004 203.423 140.767C205.593 139.53 207.325 140.52 207.325 142.994Z" fill="white" fill-opacity="0.4"/>
<path d="M221.294 203.605L219.771 202.463L247.293 165.525L247.502 165.43L287.148 145.258L305.058 80.1174L306.885 80.6313L288.766 146.571L288.404 146.762L248.549 167.029L221.294 203.605Z" fill="white"/>
<path d="M202.776 146.952L201.272 145.791L230.183 108.263L241.375 63.504L243.221 63.9608L231.934 109.101L231.82 109.272L202.776 146.952Z" fill="white"/>
<path d="M219.657 273.142L218.135 272L249.177 230.609L249.368 230.514L325.461 192.358L326.318 194.052L250.434 232.112L219.657 273.142Z" fill="white"/>
<path d="M171.143 318.681H169.24V289.394L159.057 268.574L123.789 252.779L124.569 251.048L160.465 267.109L171.143 288.956V318.681Z" fill="white"/>
<path d="M199 40H197V123L199 366V40Z" fill="white"/>
<path d="M193.622 27.0159V16.0137L194.872 16.6781V27.0235L193.622 27.0159ZM197.887 29.4077V18.4928L199.137 18.5156V29.4077H197.887ZM190 25.0342V15.0304L191.257 14.3964V24.7418L190 25.0342ZM198.274 19.6963L190.154 15.5809L191.616 14.8747L198.816 18.5042L198.278 19.6963H198.274ZM206.372 16.1617L198.013 11.2073L198.512 10L206.983 15.0076L206.375 16.1617H206.372ZM198.555 30L190 25.0569L190.607 23.9019L199.099 28.8117L198.555 30ZM190.973 15.9681L190 15.0304L198.512 10.0228L199.106 11.2063L190.973 15.9681ZM205.75 24.9848V15.467L206.999 15.0114V24.9886L205.75 24.9848ZM198.593 25.0617L198.018 23.8886L206.08 19.477L206.654 20.6511L198.593 25.0655V25.0617ZM198.324 19.8871L197.785 18.695L206.042 14.4989L206.581 15.691L198.324 19.8871ZM198.556 29.9962L198.01 28.8069L206.183 23.9408L207 24.962L198.556 29.9924V29.9962Z" fill="url(#paint18_linear)"/>
<path d="M243.622 53.0159V42.0137L244.872 42.6781V53.0235L243.622 53.0159ZM247.887 55.4077V44.4928L249.137 44.5156V55.4077H247.887ZM240 51.0342V41.0304L241.257 40.3964V50.7418L240 51.0342ZM248.274 45.6963L240.154 41.5809L241.616 40.8747L248.816 44.5042L248.278 45.6963H248.274ZM256.372 42.1617L248.013 37.2073L248.512 36L256.983 41.0076L256.375 42.1617H256.372ZM248.555 56L240 51.0569L240.607 49.9019L249.099 54.8117L248.555 56ZM240.973 41.9681L240 41.0304L248.512 36.0228L249.106 37.2063L240.973 41.9681ZM255.75 50.9848V41.467L256.999 41.0114V50.9886L255.75 50.9848ZM248.593 51.0617L248.018 49.8886L256.08 45.477L256.654 46.6511L248.593 51.0655V51.0617ZM248.324 45.8871L247.785 44.695L256.042 40.4989L256.581 41.691L248.324 45.8871ZM248.556 55.9962L248.01 54.8069L256.183 49.9408L257 50.962L248.556 55.9924V55.9962Z" fill="url(#paint19_linear)"/>
<path d="M260.622 111.016V100.014L261.872 100.678V111.024L260.622 111.016ZM264.887 113.408V102.493L266.137 102.516V113.408H264.887ZM257 109.034V99.0304L258.257 98.3964V108.742L257 109.034ZM265.274 103.696L257.154 99.5809L258.616 98.8747L265.816 102.504L265.278 103.696H265.274ZM273.372 100.162L265.013 95.2073L265.512 94L273.983 99.0076L273.375 100.162H273.372ZM265.555 114L257 109.057L257.607 107.902L266.099 112.812L265.555 114ZM257.973 99.9681L257 99.0304L265.512 94.0228L266.106 95.2063L257.973 99.9681ZM272.75 108.985V99.467L273.999 99.0114V108.989L272.75 108.985ZM265.593 109.062L265.018 107.889L273.08 103.477L273.654 104.651L265.593 109.065V109.062ZM265.324 103.887L264.785 102.695L273.042 98.4989L273.581 99.691L265.324 103.887ZM265.556 113.996L265.01 112.807L273.183 107.941L274 108.962L265.556 113.992V113.996Z" fill="url(#paint20_linear)"/>
<path d="M304.622 68.0159V57.0137L305.872 57.6781V68.0235L304.622 68.0159ZM308.887 70.4077V59.4928L310.137 59.5156V70.4077H308.887ZM301 66.0342V56.0304L302.257 55.3964V65.7418L301 66.0342ZM309.274 60.6963L301.154 56.5809L302.616 55.8747L309.816 59.5042L309.278 60.6963H309.274ZM317.372 57.1617L309.013 52.2073L309.512 51L317.983 56.0076L317.375 57.1617H317.372ZM309.555 71L301 66.0569L301.607 64.9019L310.099 69.8117L309.555 71ZM301.973 56.9681L301 56.0304L309.512 51.0228L310.106 52.2063L301.973 56.9681ZM316.75 65.9848V56.467L317.999 56.0114V65.9886L316.75 65.9848ZM309.593 66.0617L309.018 64.8886L317.08 60.477L317.654 61.6511L309.593 66.0655V66.0617ZM309.324 60.8871L308.785 59.695L317.042 55.4989L317.581 56.691L309.324 60.8871ZM309.556 70.9962L309.01 69.8069L317.183 64.9408L318 65.962L309.556 70.9924V70.9962Z" fill="url(#paint21_linear)"/>
<path d="M327.622 121.016V110.014L328.872 110.678V121.024L327.622 121.016ZM331.887 123.408V112.493L333.137 112.516V123.408H331.887ZM324 119.034V109.03L325.257 108.396V118.742L324 119.034ZM332.274 113.696L324.154 109.581L325.616 108.875L332.816 112.504L332.278 113.696H332.274ZM340.372 110.162L332.013 105.207L332.512 104L340.983 109.008L340.375 110.162H340.372ZM332.555 124L324 119.057L324.607 117.902L333.099 122.812L332.555 124ZM324.973 109.968L324 109.03L332.512 104.023L333.106 105.206L324.973 109.968ZM339.75 118.985V109.467L340.999 109.011V118.989L339.75 118.985ZM332.593 119.062L332.018 117.889L340.08 113.477L340.654 114.651L332.593 119.065V119.062ZM332.324 113.887L331.785 112.695L340.042 108.499L340.581 109.691L332.324 113.887ZM332.556 123.996L332.01 122.807L340.183 117.941L341 118.962L332.556 123.992V123.996Z" fill="url(#paint22_linear)"/>
<path d="M337.622 192.016V181.014L338.872 181.678V192.024L337.622 192.016ZM341.887 194.408V183.493L343.137 183.516V194.408H341.887ZM334 190.034V180.03L335.257 179.396V189.742L334 190.034ZM342.274 184.696L334.154 180.581L335.616 179.875L342.816 183.504L342.278 184.696H342.274ZM350.372 181.162L342.013 176.207L342.512 175L350.983 180.008L350.375 181.162H350.372ZM342.555 195L334 190.057L334.607 188.902L343.099 193.812L342.555 195ZM334.973 180.968L334 180.03L342.512 175.023L343.106 176.206L334.973 180.968ZM349.75 189.985V180.467L350.999 180.011V189.989L349.75 189.985ZM342.593 190.062L342.018 188.889L350.08 184.477L350.654 185.651L342.593 190.065V190.062ZM342.324 184.887L341.785 183.695L350.042 179.499L350.581 180.691L342.324 184.887ZM342.556 194.996L342.01 193.807L350.183 188.941L351 189.962L342.556 194.992V194.996Z" fill="url(#paint23_linear)"/>
<path d="M283.622 262.016V251.014L284.872 251.678V262.024L283.622 262.016ZM287.887 264.408V253.493L289.137 253.516V264.408H287.887ZM280 260.034V250.03L281.257 249.396V259.742L280 260.034ZM288.274 254.696L280.154 250.581L281.616 249.875L288.816 253.504L288.278 254.696H288.274ZM296.372 251.162L288.013 246.207L288.512 245L296.983 250.008L296.375 251.162H296.372ZM288.555 265L280 260.057L280.607 258.902L289.099 263.812L288.555 265ZM280.973 250.968L280 250.03L288.512 245.023L289.106 246.206L280.973 250.968ZM295.75 259.985V250.467L296.999 250.011V259.989L295.75 259.985ZM288.593 260.062L288.018 258.889L296.08 254.477L296.654 255.651L288.593 260.065V260.062ZM288.324 254.887L287.785 253.695L296.042 249.499L296.581 250.691L288.324 254.887ZM288.556 264.996L288.01 263.807L296.183 258.941L297 259.962L288.556 264.992V264.996Z" fill="url(#paint24_linear)"/>
<path d="M100.622 251.016V240.014L101.872 240.678V251.024L100.622 251.016ZM104.887 253.408V242.493L106.137 242.516V253.408H104.887ZM97 249.034V239.03L98.2565 238.396V248.742L97 249.034ZM105.274 243.696L97.1544 239.581L98.6155 238.875L105.816 242.504L105.278 243.696H105.274ZM113.372 240.162L105.013 235.207L105.512 234L113.983 239.008L113.375 240.162H113.372ZM105.555 254L97 249.057L97.6067 247.902L106.099 252.812L105.555 254ZM97.9729 239.968L97 239.03L105.512 234.023L106.106 235.206L97.9729 239.968ZM112.75 248.985V239.467L113.999 239.011V248.989L112.75 248.985ZM105.593 249.062L105.018 247.889L113.08 243.477L113.654 244.651L105.593 249.065V249.062ZM105.324 243.887L104.785 242.695L113.042 238.499L113.581 239.691L105.324 243.887ZM105.556 253.996L105.01 252.807L113.183 247.941L114 248.962L105.556 253.992V253.996Z" fill="url(#paint25_linear)"/>
<path d="M44.6224 134.016V123.014L45.8718 123.678V134.024L44.6224 134.016ZM48.8874 136.408V125.493L50.1368 125.516V136.408H48.8874ZM41 132.034V122.03L42.2565 121.396V131.742L41 132.034ZM49.2743 126.696L41.1544 122.581L42.6155 121.875L49.8164 125.504L49.2779 126.696H49.2743ZM57.3717 123.162L49.0131 118.207L49.5121 117L57.9829 122.008L57.3753 123.162H57.3717ZM49.5552 137L41 132.057L41.6067 130.902L50.0991 135.812L49.5552 137ZM41.9729 122.968L41 122.03L49.5121 117.023L50.1063 118.206L41.9729 122.968ZM56.7497 131.985V122.467L57.9991 122.011V131.989L56.7497 131.985ZM49.5929 132.062L49.0185 130.889L57.08 126.477L57.6545 127.651L49.5929 132.065V132.062ZM49.3236 126.887L48.7851 125.695L57.0423 121.499L57.5809 122.691L49.3236 126.887ZM49.5561 136.996L49.0095 135.807L57.1833 130.941L58 131.962L49.5561 136.992V136.996Z" fill="url(#paint26_linear)"/>
<path d="M49.6224 197.016V186.014L50.8718 186.678V197.024L49.6224 197.016ZM53.8874 199.408V188.493L55.1368 188.516V199.408H53.8874ZM46 195.034V185.03L47.2565 184.396V194.742L46 195.034ZM54.2743 189.696L46.1544 185.581L47.6155 184.875L54.8164 188.504L54.2779 189.696H54.2743ZM62.3717 186.162L54.0131 181.207L54.5121 180L62.9829 185.008L62.3753 186.162H62.3717ZM54.5552 200L46 195.057L46.6067 193.902L55.0991 198.812L54.5552 200ZM46.9729 185.968L46 185.03L54.5121 180.023L55.1063 181.206L46.9729 185.968ZM61.7497 194.985V185.467L62.9991 185.011V194.989L61.7497 194.985ZM54.5929 195.062L54.0185 193.889L62.08 189.477L62.6545 190.651L54.5929 195.065V195.062ZM54.3236 189.887L53.7851 188.695L62.0423 184.499L62.5809 185.691L54.3236 189.887ZM54.5561 199.996L54.0095 198.807L62.1833 193.941L63 194.962L54.5561 199.992V199.996Z" fill="url(#paint27_linear)"/>
<path d="M105.622 145.016V134.014L106.872 134.678V145.024L105.622 145.016ZM109.887 147.408V136.493L111.137 136.516V147.408H109.887ZM102 143.034V133.03L103.257 132.396V142.742L102 143.034ZM110.274 137.696L102.154 133.581L103.616 132.875L110.816 136.504L110.278 137.696H110.274ZM118.372 134.162L110.013 129.207L110.512 128L118.983 133.008L118.375 134.162H118.372ZM110.555 148L102 143.057L102.607 141.902L111.099 146.812L110.555 148ZM102.973 133.968L102 133.03L110.512 128.023L111.106 129.206L102.973 133.968ZM117.75 142.985V133.467L118.999 133.011V142.989L117.75 142.985ZM110.593 143.062L110.018 141.889L118.08 137.477L118.654 138.651L110.593 143.065V143.062ZM110.324 137.887L109.785 136.695L118.042 132.499L118.581 133.691L110.324 137.887ZM110.556 147.996L110.01 146.807L118.183 141.941L119 142.962L110.556 147.992V147.996Z" fill="url(#paint28_linear)"/>
<path d="M100.622 90.0159V79.0137L101.872 79.6781V90.0235L100.622 90.0159ZM104.887 92.4077V81.4928L106.137 81.5156V92.4077H104.887ZM97 88.0342V78.0304L98.2565 77.3964V87.7418L97 88.0342ZM105.274 82.6963L97.1544 78.5809L98.6155 77.8747L105.816 81.5042L105.278 82.6963H105.274ZM113.372 79.1617L105.013 74.2073L105.512 73L113.983 78.0076L113.375 79.1617H113.372ZM105.555 93L97 88.0569L97.6067 86.9019L106.099 91.8117L105.555 93ZM97.9729 78.9681L97 78.0304L105.512 73.0228L106.106 74.2063L97.9729 78.9681ZM112.75 87.9848V78.467L113.999 78.0114V87.9886L112.75 87.9848ZM105.593 88.0617L105.018 86.8886L113.08 82.477L113.654 83.6511L105.593 88.0655V88.0617ZM105.324 82.8871L104.785 81.695L113.042 77.4989L113.581 78.691L105.324 82.8871ZM105.556 92.9962L105.01 91.8069L113.183 86.9408L114 87.962L105.556 92.9924V92.9962Z" fill="url(#paint29_linear)"/>
<path d="M161.622 66.0159V55.0137L162.872 55.6781V66.0235L161.622 66.0159ZM165.887 68.4077V57.4928L167.137 57.5156V68.4077H165.887ZM158 64.0342V54.0304L159.257 53.3964V63.7418L158 64.0342ZM166.274 58.6963L158.154 54.5809L159.616 53.8747L166.816 57.5042L166.278 58.6963H166.274ZM174.372 55.1617L166.013 50.2073L166.512 49L174.983 54.0076L174.375 55.1617H174.372ZM166.555 69L158 64.0569L158.607 62.9019L167.099 67.8117L166.555 69ZM158.973 54.9681L158 54.0304L166.512 49.0228L167.106 50.2063L158.973 54.9681ZM173.75 63.9848V54.467L174.999 54.0114V63.9886L173.75 63.9848ZM166.593 64.0617L166.018 62.8886L174.08 58.477L174.654 59.6511L166.593 64.0655V64.0617ZM166.324 58.8871L165.785 57.695L174.042 53.4989L174.581 54.691L166.324 58.8871ZM166.556 68.9962L166.01 67.8069L174.183 62.9408L175 63.962L166.556 68.9924V68.9962Z" fill="url(#paint30_linear)"/>
</g>
<defs>
<linearGradient id="paint0_linear" x1="197.237" y1="515.074" x2="318.539" y2="544.717" gradientUnits="userSpaceOnUse">
<stop stop-color="#0066FF"/>
<stop offset="1" stop-color="#2CE0C5"/>
</linearGradient>
<linearGradient id="paint1_linear" x1="88.0459" y1="514.96" x2="209.705" y2="544.742" gradientUnits="userSpaceOnUse">
<stop stop-color="#0066FF"/>
<stop offset="1" stop-color="#2CE0C5"/>
</linearGradient>
<linearGradient id="paint2_linear" x1="88.0459" y1="451.379" x2="323.01" y2="524.031" gradientUnits="userSpaceOnUse">
<stop stop-color="#0066FF"/>
<stop offset="1" stop-color="#2CE0C5"/>
</linearGradient>
<linearGradient id="paint3_linear" x1="247.817" y1="497.642" x2="247.817" y2="574.448" gradientUnits="userSpaceOnUse">
<stop stop-color="#070E1E"/>
<stop offset="1" stop-color="#0F243F"/>
</linearGradient>
<linearGradient id="paint4_linear" x1="146.515" y1="497.528" x2="146.515" y2="574.448" gradientUnits="userSpaceOnUse">
<stop stop-color="#070E1E"/>
<stop offset="1" stop-color="#0F243F"/>
</linearGradient>
<linearGradient id="paint5_linear" x1="197.237" y1="479.944" x2="319.963" y2="506.67" gradientUnits="userSpaceOnUse">
<stop stop-color="#0066FF"/>
<stop offset="1" stop-color="#2CE0C5"/>
</linearGradient>
<linearGradient id="paint6_linear" x1="88.0459" y1="479.83" x2="211.136" y2="506.685" gradientUnits="userSpaceOnUse">
<stop stop-color="#0066FF"/>
<stop offset="1" stop-color="#2CE0C5"/>
</linearGradient>
<linearGradient id="paint7_linear" x1="88.0459" y1="416.249" x2="323.01" y2="488.901" gradientUnits="userSpaceOnUse">
<stop stop-color="#0066FF"/>
<stop offset="1" stop-color="#2CE0C5"/>
</linearGradient>
<linearGradient id="paint8_linear" x1="247.817" y1="462.645" x2="247.817" y2="539.471" gradientUnits="userSpaceOnUse">
<stop stop-color="#070E1E"/>
<stop offset="1" stop-color="#0F243F"/>
</linearGradient>
<linearGradient id="paint9_linear" x1="146.515" y1="462.55" x2="146.515" y2="539.471" gradientUnits="userSpaceOnUse">
<stop stop-color="#070E1E"/>
<stop offset="1" stop-color="#0F243F"/>
</linearGradient>
<linearGradient id="paint10_linear" x1="197.237" y1="435.127" x2="321.009" y2="459.435" gradientUnits="userSpaceOnUse">
<stop stop-color="#0066FF"/>
<stop offset="1" stop-color="#2CE0C5"/>
</linearGradient>
<linearGradient id="paint11_linear" x1="88.0459" y1="435.032" x2="212.187" y2="459.466" gradientUnits="userSpaceOnUse">
<stop stop-color="#0066FF"/>
<stop offset="1" stop-color="#2CE0C5"/>
</linearGradient>
<linearGradient id="paint12_linear" x1="88.0459" y1="371.452" x2="323.01" y2="444.104" gradientUnits="userSpaceOnUse">
<stop stop-color="#0066FF"/>
<stop offset="1" stop-color="#2CE0C5"/>
</linearGradient>
<linearGradient id="paint13_linear" x1="247.817" y1="417.315" x2="247.817" y2="494.14" gradientUnits="userSpaceOnUse">
<stop stop-color="#070E1E"/>
<stop offset="1" stop-color="#0F243F"/>
</linearGradient>
<linearGradient id="paint14_linear" x1="146.515" y1="417.22" x2="146.515" y2="494.14" gradientUnits="userSpaceOnUse">
<stop stop-color="#070E1E"/>
<stop offset="1" stop-color="#0F243F"/>
</linearGradient>
<linearGradient id="paint15_linear" x1="197.237" y1="377.39" x2="321.933" y2="399.301" gradientUnits="userSpaceOnUse">
<stop stop-color="#0066FF"/>
<stop offset="1" stop-color="#2CE0C5"/>
</linearGradient>
<linearGradient id="paint16_linear" x1="88.0459" y1="377.276" x2="213.117" y2="399.3" gradientUnits="userSpaceOnUse">
<stop stop-color="#0066FF"/>
<stop offset="1" stop-color="#2CE0C5"/>
</linearGradient>
<linearGradient id="paint17_linear" x1="88.0459" y1="313.695" x2="323.01" y2="386.347" gradientUnits="userSpaceOnUse">
<stop stop-color="#0066FF"/>
<stop offset="1" stop-color="#2CE0C5"/>
</linearGradient>
<linearGradient id="paint18_linear" x1="190" y1="10" x2="209.605" y2="13.0051" gradientUnits="userSpaceOnUse">
<stop stop-color="#0066FF"/>
<stop offset="1" stop-color="#2CE0C5"/>
</linearGradient>
<linearGradient id="paint19_linear" x1="240" y1="36" x2="259.605" y2="39.0051" gradientUnits="userSpaceOnUse">
<stop stop-color="#0066FF"/>
<stop offset="1" stop-color="#2CE0C5"/>
</linearGradient>
<linearGradient id="paint20_linear" x1="257" y1="94" x2="276.605" y2="97.0051" gradientUnits="userSpaceOnUse">
<stop stop-color="#0066FF"/>
<stop offset="1" stop-color="#2CE0C5"/>
</linearGradient>
<linearGradient id="paint21_linear" x1="301" y1="51" x2="320.605" y2="54.0051" gradientUnits="userSpaceOnUse">
<stop stop-color="#0066FF"/>
<stop offset="1" stop-color="#2CE0C5"/>
</linearGradient>
<linearGradient id="paint22_linear" x1="324" y1="104" x2="343.605" y2="107.005" gradientUnits="userSpaceOnUse">
<stop stop-color="#0066FF"/>
<stop offset="1" stop-color="#2CE0C5"/>
</linearGradient>
<linearGradient id="paint23_linear" x1="334" y1="175" x2="353.605" y2="178.005" gradientUnits="userSpaceOnUse">
<stop stop-color="#0066FF"/>
<stop offset="1" stop-color="#2CE0C5"/>
</linearGradient>
<linearGradient id="paint24_linear" x1="280" y1="245" x2="299.605" y2="248.005" gradientUnits="userSpaceOnUse">
<stop stop-color="#0066FF"/>
<stop offset="1" stop-color="#2CE0C5"/>
</linearGradient>
<linearGradient id="paint25_linear" x1="97" y1="234" x2="116.605" y2="237.005" gradientUnits="userSpaceOnUse">
<stop stop-color="#0066FF"/>
<stop offset="1" stop-color="#2CE0C5"/>
</linearGradient>
<linearGradient id="paint26_linear" x1="41" y1="117" x2="60.605" y2="120.005" gradientUnits="userSpaceOnUse">
<stop stop-color="#0066FF"/>
<stop offset="1" stop-color="#2CE0C5"/>
</linearGradient>
<linearGradient id="paint27_linear" x1="46" y1="180" x2="65.605" y2="183.005" gradientUnits="userSpaceOnUse">
<stop stop-color="#0066FF"/>
<stop offset="1" stop-color="#2CE0C5"/>
</linearGradient>
<linearGradient id="paint28_linear" x1="102" y1="128" x2="121.605" y2="131.005" gradientUnits="userSpaceOnUse">
<stop stop-color="#0066FF"/>
<stop offset="1" stop-color="#2CE0C5"/>
</linearGradient>
<linearGradient id="paint29_linear" x1="97" y1="73" x2="116.605" y2="76.0051" gradientUnits="userSpaceOnUse">
<stop stop-color="#0066FF"/>
<stop offset="1" stop-color="#2CE0C5"/>
</linearGradient>
<linearGradient id="paint30_linear" x1="158" y1="49" x2="177.605" y2="52.0051" gradientUnits="userSpaceOnUse">
<stop stop-color="#0066FF"/>
<stop offset="1" stop-color="#2CE0C5"/>
</linearGradient>
<clipPath id="clip0">
<rect width="381" height="617" fill="white"/>
</clipPath>
</defs>
</svg>
