<svg width="80" height="80" viewBox="0 0 80 80" fill="none" xmlns="http://www.w3.org/2000/svg">
<g clip-path="url(#clip0)">
<path d="M67.5144 18.342C62.172 16.5374 57.8967 12.2979 56.0781 7.00137C55.8272 6.27097 55.1428 5.78018 54.3748 5.78018H25.6253C24.8576 5.78018 24.1731 6.27097 23.9221 7.00152C22.1035 12.2979 17.8282 16.5374 12.486 18.3418C11.7502 18.5902 11.256 19.2759 11.256 20.0479V33.6765C11.256 42.9638 14.2022 51.7973 19.776 59.2219C24.6994 65.7802 31.6594 70.9643 39.3738 73.8193C39.7776 73.9686 40.2224 73.9686 40.6261 73.8193C47.3017 71.3487 53.3326 67.2153 58.0667 61.866C58.496 61.3809 58.4508 60.6395 57.9657 60.2102C57.4804 59.7807 56.739 59.8261 56.3098 60.3112C51.8755 65.3218 46.2394 69.2043 39.9999 71.5489C32.778 68.8343 26.268 63.9623 21.6521 57.8135C16.3855 50.7982 13.6019 42.4518 13.6019 33.6765V20.4371C19.3364 18.3775 23.9349 13.8157 26.0123 8.12606H53.9874C56.0648 13.8157 60.6633 18.3775 66.3978 20.4371V33.6765C66.3978 41.679 64.0547 49.4047 59.622 56.0183C59.2613 56.5565 59.4051 57.2852 59.9432 57.6458C60.4814 58.0066 61.2101 57.8628 61.5708 57.3246C66.2635 50.3232 68.7439 42.1458 68.7439 33.6766V20.048C68.744 19.276 68.2498 18.5903 67.5144 18.342ZM36.4809 47.2974C36.4809 49.2379 38.0595 50.8165 40 50.8165C41.9405 50.8165 43.5191 49.2379 43.5191 47.2974V44.2221C43.9801 43.5292 44.2229 42.7264 44.2229 41.8879C44.2229 40.731 43.7404 39.6118 42.8991 38.8173C42.0458 38.0115 40.9286 37.6053 39.7535 37.6721C37.677 37.791 35.9745 39.4418 35.7936 41.5119C35.7096 42.4721 35.9531 43.4268 36.4809 44.2219V47.2974ZM38.1308 41.7162C38.2109 40.7987 38.9663 40.0673 39.8877 40.0144C39.9253 40.0122 39.9626 40.0111 39.9999 40.0111C40.4824 40.0111 40.9364 40.1905 41.2883 40.523C41.6679 40.8815 41.8768 41.3662 41.8768 41.8879C41.8768 42.2904 41.7513 42.6737 41.5138 42.997C41.291 43.3003 41.173 43.6644 41.173 44.0496V47.2973C41.173 47.9442 40.6469 48.4703 40 48.4703C39.3531 48.4703 38.827 47.9442 38.827 47.2973V44.0494C38.827 43.6645 38.7091 43.3003 38.4859 42.9965C38.2955 42.7374 38.0792 42.3047 38.1308 41.7162ZM72.1098 13.4591C66.2758 12.8655 61.6047 8.23851 61.003 2.45677C60.8571 1.05619 59.6874 0 58.2816 0H21.7184C20.3128 0 19.1429 1.05619 18.9973 2.45677C18.3955 8.23836 13.7244 12.8655 7.89038 13.4591C6.48682 13.6019 5.42828 14.7719 5.42828 16.1808V33.6766C5.42828 44.1267 8.72134 54.0842 14.9515 62.4727C17.9489 66.5087 21.5406 70.0503 25.6266 72.9989C29.7631 75.9842 34.3157 78.2952 39.1579 79.8677C39.701 80.0441 40.2992 80.0441 40.8422 79.8677C45.6843 78.2951 50.2369 75.984 54.3734 72.9989C58.4594 70.0501 62.0511 66.5087 65.0485 62.4727C71.2787 54.0842 74.5717 44.1267 74.5717 33.6766V16.1808C74.5717 14.7719 73.5134 13.6017 72.1098 13.4591ZM72.2257 33.6766C72.2257 43.6192 69.0926 53.0929 63.1651 61.074C57.3527 68.9001 49.3829 74.6273 40.1175 77.6364C40.0418 77.661 39.9582 77.661 39.8825 77.6364C30.6169 74.6273 22.6471 68.9001 16.8349 61.074C10.9075 53.0929 7.77432 43.6192 7.77432 33.6766V16.1808C7.77432 15.9801 7.92619 15.8134 8.12779 15.7931C15.0618 15.0877 20.6144 9.58108 21.3307 2.69967C21.3516 2.49806 21.5184 2.34604 21.7184 2.34604H58.2816C58.4817 2.34604 58.6484 2.49806 58.6693 2.69967C59.3857 9.58108 64.9383 15.0877 71.8724 15.7931C72.0738 15.8136 72.2257 15.9803 72.2257 16.1808V33.6766ZM30.4885 19.8347C30.8336 19.2863 30.6687 18.5622 30.1204 18.2172C29.572 17.872 28.8477 18.0371 28.5028 18.5853C27.144 20.7451 26.4258 23.2383 26.4258 25.7955V32.3198C24.6349 33.3249 23.4213 35.2416 23.4213 37.4373V51.0444C23.4213 54.2785 26.0523 56.9095 29.2864 56.9095H50.7136C53.9477 56.9095 56.5787 54.2785 56.5787 51.0444V37.4373C56.5787 35.2416 55.3652 33.325 53.5742 32.3198V25.7955C53.5742 18.3107 47.4848 12.2213 40 12.2213C37.415 12.2213 34.8988 12.9541 32.7234 14.3404C32.1771 14.6886 32.0164 15.4136 32.3646 15.96C32.7129 16.5063 33.4378 16.6671 33.9841 16.3187C35.7821 15.1729 37.8623 14.5674 39.9999 14.5674C46.1911 14.5674 51.228 19.6043 51.228 25.7955V31.5962C51.0583 31.5813 50.8869 31.5722 50.7134 31.5722H48.882V25.7955C48.882 23.4227 47.9579 21.1918 46.2794 19.5133C44.6009 17.8366 42.3708 16.9132 39.9999 16.9132C35.1023 16.9132 31.1177 20.8978 31.1177 25.7953V31.5721H29.2863C29.1128 31.5721 28.9414 31.5812 28.7717 31.596V25.7955C28.7719 23.6809 29.3656 21.6197 30.4885 19.8347ZM33.4639 25.7955C33.4639 22.1915 36.396 19.2594 40 19.2594C41.7448 19.2594 43.3861 19.9392 44.6212 21.1727C45.856 22.4077 46.5361 24.0494 46.5361 25.7955V31.5722H33.4639V25.7955ZM29.2864 33.9183H50.7136C52.6541 33.9183 54.2327 35.4969 54.2327 37.4373V51.0444C54.2327 52.9849 52.6541 54.5634 50.7136 54.5634H29.2864C27.3459 54.5634 25.7674 52.9849 25.7674 51.0444V37.4373C25.7674 35.4969 27.3461 33.9183 29.2864 33.9183Z" fill="url(#paint0_linear)"/>
</g>
<defs>
<linearGradient id="paint0_linear" x1="5.42828" y1="0" x2="85.1051" y2="12.4185" gradientUnits="userSpaceOnUse">
<stop stop-color="#0066FF"/>
<stop offset="1" stop-color="#2CE0C5"/>
</linearGradient>
<clipPath id="clip0">
<rect width="80" height="80" fill="white"/>
</clipPath>
</defs>
</svg>
