<svg width="80" height="80" viewBox="0 0 80 80" fill="none" xmlns="http://www.w3.org/2000/svg">
<path d="M44.7007 40C45.7743 39.0543 46.4516 37.6682 46.4516 36.129C46.4516 33.2825 44.1368 30.9677 41.2903 30.9677H40V28.3871H37.4194V30.9677H33.5484V49.0323H37.4194V51.6129H40V49.0323H41.2903C44.1368 49.0323 46.4516 46.7175 46.4516 43.871C46.4516 42.3318 45.7743 40.9457 44.7007 40ZM41.2903 46.4516H36.129V41.2903H41.2903C42.7136 41.2903 43.871 42.4477 43.871 43.871C43.871 45.2942 42.7136 46.4516 41.2903 46.4516ZM41.2903 38.7097H36.129V33.5484H41.2903C42.7136 33.5484 43.871 34.7058 43.871 36.129C43.871 37.5523 42.7136 38.7097 41.2903 38.7097Z" fill="url(#paint0_linear)"/>
<path d="M36.129 0H38.7097V2.58065H36.129V0Z" fill="url(#paint1_linear)"/>
<path d="M36.129 5.16129H38.7097V24.5161H36.129V5.16129Z" fill="url(#paint2_linear)"/>
<path d="M41.2903 0H43.871V2.58065H41.2903V0Z" fill="url(#paint3_linear)"/>
<path d="M41.2903 5.16129H43.871V24.5161H41.2903V5.16129Z" fill="url(#paint4_linear)"/>
<path d="M23.2258 0H25.8064V2.58065H23.2258V0Z" fill="url(#paint5_linear)"/>
<path d="M54.1936 0H56.7742V2.58065H54.1936V0Z" fill="url(#paint6_linear)"/>
<path d="M41.2903 77.4193H43.871V80H41.2903V77.4193Z" fill="url(#paint7_linear)"/>
<path d="M41.2903 55.4839H43.871V74.8387H41.2903V55.4839Z" fill="url(#paint8_linear)"/>
<path d="M36.129 77.4193H38.7097V80H36.129V77.4193Z" fill="url(#paint9_linear)"/>
<path d="M36.129 55.4839H38.7097V74.8387H36.129V55.4839Z" fill="url(#paint10_linear)"/>
<path d="M54.1936 77.4193H56.7742V80H54.1936V77.4193Z" fill="url(#paint11_linear)"/>
<path d="M23.2258 77.4193H25.8064V80H23.2258V77.4193Z" fill="url(#paint12_linear)"/>
<path d="M23.2258 40C23.2258 35.969 24.6837 32.0722 27.3318 29.0297L25.3856 27.3368C22.3293 30.848 20.6452 35.3472 20.6452 40C20.6452 47.1396 24.6699 53.7626 30.9677 57.098V58.0645H15.4183C14.8028 51.267 9.37815 45.8424 2.58065 45.2268V34.7744C9.37815 34.1576 14.8028 28.7342 15.4183 21.9367H30.9677V22.9032C29.6787 23.5868 28.4621 24.4204 27.3419 25.3868L29.031 27.3406C30.1859 26.3432 31.4579 25.5097 32.8131 24.8645L33.5484 24.5124V17.459L25.8064 11.0074V5.16129H23.2258V12.2184L30.9677 18.67V19.3548H0V60.6452H30.9677V61.33L23.2258 67.7816V74.8387H25.8064V68.9926L33.5484 62.5409V55.4876L32.8131 55.138C26.9884 52.3664 23.2258 46.4245 23.2258 40ZM12.827 21.9355C12.2297 27.3097 7.95489 31.5846 2.58065 32.1818V21.9355H12.827ZM2.58065 47.8182C7.95489 48.4154 12.2297 52.6903 12.827 58.0645H2.58065V47.8182Z" fill="url(#paint13_linear)"/>
<path d="M80 60.6452V19.3548H49.0323V18.67L56.7742 12.2184V5.16129H54.1935V11.0074L46.4516 17.459V24.5124L47.1869 24.862C53.0116 27.6336 56.7742 33.5755 56.7742 40C56.7742 44.031 55.3163 47.9278 52.6682 50.9703L54.6144 52.6632C57.6707 49.152 59.3548 44.6528 59.3548 40C59.3548 32.8604 55.3301 26.2374 49.0323 22.902V21.9355H64.5817C65.1985 28.733 70.6218 34.1576 77.4194 34.7732V45.2256C70.6218 45.8424 65.1972 51.2657 64.5817 58.0633H49.0323V57.0968C50.3213 56.4132 51.5379 55.5796 52.6581 54.6132L50.969 52.6594C49.8141 53.6568 48.5421 54.4903 47.1869 55.1355L46.4516 55.4876V62.5409L54.1935 68.9926V74.8387H56.7742V67.7816L49.0323 61.33V60.6452H80ZM67.173 21.9355H77.4194V32.1818C72.0451 31.5846 67.7703 27.3097 67.173 21.9355ZM77.4194 47.8182V58.0645H67.173C67.7703 52.6903 72.0451 48.4154 77.4194 47.8182Z" fill="url(#paint14_linear)"/>
<path d="M5.16129 24.5161H7.74193V27.0968H5.16129V24.5161Z" fill="url(#paint15_linear)"/>
<path d="M72.2581 24.5161H74.8387V27.0968H72.2581V24.5161Z" fill="url(#paint16_linear)"/>
<path d="M5.16129 52.9032H7.74193V55.4839H5.16129V52.9032Z" fill="url(#paint17_linear)"/>
<path d="M72.2581 52.9032H74.8387V55.4839H72.2581V52.9032Z" fill="url(#paint18_linear)"/>
<defs>
<linearGradient id="paint0_linear" x1="33.5484" y1="28.3871" x2="48.6272" y2="29.8978" gradientUnits="userSpaceOnUse">
<stop stop-color="#0066FF"/>
<stop offset="1" stop-color="#2CE0C5"/>
</linearGradient>
<linearGradient id="paint1_linear" x1="36.129" y1="0" x2="39.0791" y2="0.532" gradientUnits="userSpaceOnUse">
<stop stop-color="#0066FF"/>
<stop offset="1" stop-color="#2CE0C5"/>
</linearGradient>
<linearGradient id="paint2_linear" x1="36.129" y1="5.16129" x2="39.1733" y2="5.23449" gradientUnits="userSpaceOnUse">
<stop stop-color="#0066FF"/>
<stop offset="1" stop-color="#2CE0C5"/>
</linearGradient>
<linearGradient id="paint3_linear" x1="41.2903" y1="0" x2="44.2404" y2="0.532001" gradientUnits="userSpaceOnUse">
<stop stop-color="#0066FF"/>
<stop offset="1" stop-color="#2CE0C5"/>
</linearGradient>
<linearGradient id="paint4_linear" x1="41.2903" y1="5.16129" x2="44.3346" y2="5.23449" gradientUnits="userSpaceOnUse">
<stop stop-color="#0066FF"/>
<stop offset="1" stop-color="#2CE0C5"/>
</linearGradient>
<linearGradient id="paint5_linear" x1="23.2258" y1="0" x2="26.1759" y2="0.532001" gradientUnits="userSpaceOnUse">
<stop stop-color="#0066FF"/>
<stop offset="1" stop-color="#2CE0C5"/>
</linearGradient>
<linearGradient id="paint6_linear" x1="54.1936" y1="0" x2="57.1436" y2="0.532" gradientUnits="userSpaceOnUse">
<stop stop-color="#0066FF"/>
<stop offset="1" stop-color="#2CE0C5"/>
</linearGradient>
<linearGradient id="paint7_linear" x1="41.2903" y1="77.4193" x2="44.2404" y2="77.9514" gradientUnits="userSpaceOnUse">
<stop stop-color="#0066FF"/>
<stop offset="1" stop-color="#2CE0C5"/>
</linearGradient>
<linearGradient id="paint8_linear" x1="41.2903" y1="55.4839" x2="44.3346" y2="55.5571" gradientUnits="userSpaceOnUse">
<stop stop-color="#0066FF"/>
<stop offset="1" stop-color="#2CE0C5"/>
</linearGradient>
<linearGradient id="paint9_linear" x1="36.129" y1="77.4193" x2="39.0791" y2="77.9513" gradientUnits="userSpaceOnUse">
<stop stop-color="#0066FF"/>
<stop offset="1" stop-color="#2CE0C5"/>
</linearGradient>
<linearGradient id="paint10_linear" x1="36.129" y1="55.4839" x2="39.1733" y2="55.5571" gradientUnits="userSpaceOnUse">
<stop stop-color="#0066FF"/>
<stop offset="1" stop-color="#2CE0C5"/>
</linearGradient>
<linearGradient id="paint11_linear" x1="54.1936" y1="77.4193" x2="57.1436" y2="77.9513" gradientUnits="userSpaceOnUse">
<stop stop-color="#0066FF"/>
<stop offset="1" stop-color="#2CE0C5"/>
</linearGradient>
<linearGradient id="paint12_linear" x1="23.2258" y1="77.4193" x2="26.1759" y2="77.9513" gradientUnits="userSpaceOnUse">
<stop stop-color="#0066FF"/>
<stop offset="1" stop-color="#2CE0C5"/>
</linearGradient>
<linearGradient id="paint13_linear" x1="0" y1="5.16129" x2="39.302" y2="8.57379" gradientUnits="userSpaceOnUse">
<stop stop-color="#0066FF"/>
<stop offset="1" stop-color="#2CE0C5"/>
</linearGradient>
<linearGradient id="paint14_linear" x1="46.4516" y1="5.16129" x2="85.7536" y2="8.57379" gradientUnits="userSpaceOnUse">
<stop stop-color="#0066FF"/>
<stop offset="1" stop-color="#2CE0C5"/>
</linearGradient>
<linearGradient id="paint15_linear" x1="5.16129" y1="24.5161" x2="8.11137" y2="25.0481" gradientUnits="userSpaceOnUse">
<stop stop-color="#0066FF"/>
<stop offset="1" stop-color="#2CE0C5"/>
</linearGradient>
<linearGradient id="paint16_linear" x1="72.2581" y1="24.5161" x2="75.2081" y2="25.0481" gradientUnits="userSpaceOnUse">
<stop stop-color="#0066FF"/>
<stop offset="1" stop-color="#2CE0C5"/>
</linearGradient>
<linearGradient id="paint17_linear" x1="5.16129" y1="52.9032" x2="8.11137" y2="53.4352" gradientUnits="userSpaceOnUse">
<stop stop-color="#0066FF"/>
<stop offset="1" stop-color="#2CE0C5"/>
</linearGradient>
<linearGradient id="paint18_linear" x1="72.2581" y1="52.9032" x2="75.2081" y2="53.4352" gradientUnits="userSpaceOnUse">
<stop stop-color="#0066FF"/>
<stop offset="1" stop-color="#2CE0C5"/>
</linearGradient>
</defs>
</svg>
