<svg width="80" height="80" viewBox="0 0 80 80" fill="none" xmlns="http://www.w3.org/2000/svg">
<g clip-path="url(#clip0)">
<path d="M79.8159 68.8227L76.5106 63.6444C75.8442 62.6003 74.887 61.8166 73.7808 61.3678C74.7317 60.3258 75.3127 58.9405 75.3127 57.4219V10.5469C75.3127 7.31594 72.6842 4.6875 69.4533 4.6875H10.547C7.31594 4.6875 4.6875 7.31594 4.6875 10.5469V57.4219C4.6875 58.9405 5.26828 60.3258 6.21938 61.3678C5.11297 61.8167 4.15594 62.6003 3.48953 63.6444L0.184062 68.8227C0.0639062 69.0109 0 69.2297 0 69.4531C0 72.6841 2.62844 75.3125 5.85938 75.3125H74.1406C77.3716 75.3125 80 72.6841 80 69.4531C80 69.2297 79.9361 69.0109 79.8159 68.8227ZM7.03125 10.5469C7.03125 8.60828 8.60828 7.03125 10.5469 7.03125H69.4531C71.3917 7.03125 72.9688 8.60828 72.9688 10.5469V57.4219C72.9688 59.3605 71.3917 60.9375 69.4531 60.9375H10.5469C8.60828 60.9375 7.03125 59.3605 7.03125 57.4219V10.5469ZM5.465 64.9053C6.11406 63.8884 7.22188 63.2812 8.42828 63.2812H71.5716C72.778 63.2812 73.8858 63.8884 74.535 64.9053L76.6898 68.2812H3.31016L5.465 64.9053ZM46.5459 70.625L44.2022 72.9688H35.798L33.4542 70.625H46.5459ZM2.54813 70.625H30.1395L32.4833 72.9688H5.85938C4.33203 72.9688 3.03219 71.9884 2.54813 70.625ZM74.1406 72.9688H47.5166L49.8603 70.625H77.4517C76.9678 71.9884 75.668 72.9688 74.1406 72.9688Z" fill="url(#paint0_linear)"/>
<path d="M17.5781 44.5312C15.6395 44.5312 14.0625 46.1083 14.0625 48.0469C14.0625 49.9855 15.6395 51.5625 17.5781 51.5625C19.5167 51.5625 21.0938 49.9855 21.0938 48.0469C21.0938 47.4772 20.9567 46.9392 20.7152 46.463L25.1031 41.8762C25.5439 42.0756 26.0323 42.1877 26.5467 42.1877C28.4853 42.1877 30.0623 40.6106 30.0623 38.672C30.0623 38.1023 29.9253 37.5644 29.6838 37.0881L34.0717 32.5014C34.5125 32.7008 35.0009 32.8128 35.5153 32.8128C36.0297 32.8128 36.5181 32.7008 36.9589 32.5014L41.347 37.0881C41.1055 37.5645 40.9684 38.1025 40.9684 38.672C40.9684 40.6106 42.5455 42.1877 44.4841 42.1877C46.4227 42.1877 47.9997 40.6106 47.9997 38.672C47.9997 38.1023 47.8627 37.5644 47.6211 37.0881L60.9778 23.1264C61.4186 23.3258 61.907 23.4378 62.4214 23.4378C64.36 23.4378 65.937 21.8608 65.937 19.9222C65.937 17.9836 64.3605 16.4062 62.4219 16.4062C60.4833 16.4062 58.9062 17.9833 58.9062 19.9219C58.9062 20.4916 59.0433 21.0295 59.2848 21.5058L45.9281 35.4675C45.4873 35.2681 44.9989 35.1561 44.4845 35.1561C43.9702 35.1561 43.4817 35.2681 43.0409 35.4675L38.6528 30.8808C38.8944 30.4044 39.0314 29.8666 39.0314 29.2969C39.0314 27.3583 37.4544 25.7812 35.5158 25.7812C33.5772 25.7812 32.0002 27.3583 32.0002 29.2969C32.0002 29.8666 32.1372 30.4045 32.3787 30.8808L27.9908 35.4675C27.55 35.2681 27.0616 35.1561 26.5472 35.1561C24.6086 35.1561 23.0316 36.7331 23.0316 38.6717C23.0316 39.2414 23.1686 39.7794 23.4102 40.2556L19.0222 44.8423C18.5809 44.6433 18.0925 44.5312 17.5781 44.5312ZM17.5781 49.2188C16.9319 49.2188 16.4062 48.6931 16.4062 48.0469C16.4062 47.4006 16.9319 46.875 17.5781 46.875C18.2244 46.875 18.75 47.4006 18.75 48.0469C18.75 48.6931 18.2244 49.2188 17.5781 49.2188ZM62.4219 18.75C63.0681 18.75 63.5938 19.2756 63.5938 19.9219C63.5938 20.5681 63.0681 21.0938 62.4219 21.0938C61.7756 21.0938 61.25 20.5681 61.25 19.9219C61.25 19.2756 61.7756 18.75 62.4219 18.75ZM45.6563 38.6719C45.6563 39.3181 45.1306 39.8438 44.4844 39.8438C43.8381 39.8438 43.3125 39.3181 43.3125 38.6719C43.3125 38.0256 43.8381 37.5 44.4844 37.5C45.1306 37.5 45.6563 38.0256 45.6563 38.6719ZM35.5156 28.125C36.1619 28.125 36.6875 28.6506 36.6875 29.2969C36.6875 29.9431 36.1619 30.4688 35.5156 30.4688C34.8694 30.4688 34.3438 29.9431 34.3438 29.2969C34.3438 28.6506 34.8694 28.125 35.5156 28.125ZM26.5469 37.5C27.1931 37.5 27.7187 38.0256 27.7187 38.6719C27.7187 39.3181 27.1931 39.8438 26.5469 39.8438C25.9006 39.8438 25.375 39.3181 25.375 38.6719C25.375 38.0256 25.9006 37.5 26.5469 37.5Z" fill="url(#paint1_linear)"/>
<path d="M10.5469 58.5938H69.4531C70.1003 58.5938 70.625 58.0691 70.625 57.4219V10.5469C70.625 9.89969 70.1003 9.375 69.4531 9.375H10.5469C9.89969 9.375 9.375 9.89969 9.375 10.5469V45.7031C9.375 46.3503 9.89969 46.875 10.5469 46.875C11.1941 46.875 11.7188 46.3503 11.7188 45.7031V11.7188H68.2812V56.25H11.7188V50.3906C11.7188 49.7434 11.1941 49.2188 10.5469 49.2188C9.89969 49.2188 9.375 49.7434 9.375 50.3906V57.4219C9.375 58.0691 9.89969 58.5938 10.5469 58.5938Z" fill="url(#paint2_linear)"/>
</g>
<defs>
<linearGradient id="paint0_linear" x1="0" y1="4.6875" x2="90.6444" y2="23.2036" gradientUnits="userSpaceOnUse">
<stop stop-color="#0066FF"/>
<stop offset="1" stop-color="#2CE0C5"/>
</linearGradient>
<linearGradient id="paint1_linear" x1="14.0625" y1="16.4062" x2="71.2432" y2="31.6215" gradientUnits="userSpaceOnUse">
<stop stop-color="#0066FF"/>
<stop offset="1" stop-color="#2CE0C5"/>
</linearGradient>
<linearGradient id="paint2_linear" x1="9.375" y1="9.375" x2="78.2041" y2="24.8213" gradientUnits="userSpaceOnUse">
<stop stop-color="#0066FF"/>
<stop offset="1" stop-color="#2CE0C5"/>
</linearGradient>
<clipPath id="clip0">
<rect width="80" height="80" fill="white"/>
</clipPath>
</defs>
</svg>
